<svg xmlns="http://www.w3.org/2000/svg" xmlns:xlink="http://www.w3.org/1999/xlink" width="2000" zoomAndPan="magnify" viewBox="0 0 1500 1499.999933" height="2000" preserveAspectRatio="xMidYMid meet" version="1.0"><defs><g/><clipPath id="cdf005be68"><rect x="0" width="234" y="0" height="463"/></clipPath><clipPath id="ef31b8966b"><path d="M 176 71 L 410 71 L 410 534.28125 L 176 534.28125 Z M 176 71 " clip-rule="nonzero"/></clipPath><clipPath id="e1b80c7d55"><rect x="0" width="234" y="0" height="464"/></clipPath><clipPath id="cacfa3ceb1"><path d="M 0.480469 0.761719 L 496.320312 0.761719 L 496.320312 305 L 0.480469 305 Z M 0.480469 0.761719 " clip-rule="nonzero"/></clipPath><clipPath id="4b2a70a3e3"><rect x="0" width="497" y="0" height="305"/></clipPath><clipPath id="e8c8393122"><path d="M 332.371094 207.457031 L 340.5 207.457031 L 340.5 215.757812 L 332.371094 215.757812 Z M 332.371094 207.457031 " clip-rule="nonzero"/></clipPath><clipPath id="295381544a"><path d="M 340.472656 210.410156 C 340.472656 212.992188 340.164062 213.683594 339.75 214.164062 C 339.371094 214.679688 338.785156 215.128906 338.199219 215.402344 C 337.613281 215.644531 336.890625 215.78125 336.273438 215.75 C 335.617188 215.714844 334.929688 215.507812 334.378906 215.164062 C 333.828125 214.820312 333.308594 214.300781 332.964844 213.75 C 332.65625 213.199219 332.414062 212.511719 332.378906 211.890625 C 332.34375 211.238281 332.484375 210.515625 332.757812 209.929688 C 333 209.34375 333.449219 208.757812 333.964844 208.378906 C 334.480469 207.964844 335.136719 207.691406 335.753906 207.550781 C 336.410156 207.449219 337.132812 207.484375 337.753906 207.691406 C 338.335938 207.863281 339.441406 208.6875 339.441406 208.6875 " clip-rule="nonzero"/></clipPath><clipPath id="7c9ea8203f"><path d="M 0.371094 0.457031 L 8.5 0.457031 L 8.5 8.757812 L 0.371094 8.757812 Z M 0.371094 0.457031 " clip-rule="nonzero"/></clipPath><clipPath id="bef93312e3"><path d="M 8.472656 3.410156 C 8.472656 5.992188 8.164062 6.683594 7.75 7.164062 C 7.371094 7.679688 6.785156 8.128906 6.199219 8.402344 C 5.613281 8.644531 4.890625 8.78125 4.273438 8.75 C 3.617188 8.714844 2.929688 8.507812 2.378906 8.164062 C 1.828125 7.820312 1.308594 7.300781 0.964844 6.75 C 0.65625 6.199219 0.414062 5.511719 0.378906 4.890625 C 0.34375 4.238281 0.484375 3.515625 0.757812 2.929688 C 1 2.34375 1.449219 1.757812 1.964844 1.378906 C 2.480469 0.964844 3.136719 0.691406 3.753906 0.550781 C 4.410156 0.449219 5.132812 0.484375 5.753906 0.691406 C 6.335938 0.863281 7.441406 1.6875 7.441406 1.6875 " clip-rule="nonzero"/></clipPath><clipPath id="bec78e60f5"><rect x="0" width="9" y="0" height="9"/></clipPath><clipPath id="eed8930b40"><path d="M 331.125 204.855469 L 342.566406 204.855469 L 342.566406 217.777344 L 331.125 217.777344 Z M 331.125 204.855469 " clip-rule="nonzero"/></clipPath><clipPath id="871d5c9af4"><path d="M 339.027344 208.722656 C 342.367188 212.269531 342.644531 213.371094 342.503906 214.265625 C 342.332031 215.164062 341.746094 216.230469 341.023438 216.816406 C 340.335938 217.367188 339.09375 217.710938 338.269531 217.746094 C 337.582031 217.746094 336.890625 217.503906 336.339844 217.195312 C 335.789062 216.882812 335.167969 216.507812 334.929688 215.816406 C 334.550781 214.820312 335.273438 211.238281 335.410156 211.269531 C 335.515625 211.269531 336.066406 215.4375 335.6875 215.574219 C 335.273438 215.714844 333.308594 211.925781 333.035156 211.960938 C 332.929688 211.996094 333 212.375 332.929688 212.375 C 332.757812 212.441406 332.242188 211.824219 331.96875 211.445312 C 331.691406 211.097656 331.449219 210.753906 331.347656 210.273438 C 331.175781 209.582031 331.175781 208.308594 331.382812 207.621094 C 331.484375 207.140625 331.65625 206.828125 332 206.449219 C 332.484375 205.933594 333.378906 205.210938 334.207031 205.003906 C 334.996094 204.761719 336.066406 204.832031 336.824219 205.140625 C 337.613281 205.453125 338.40625 206.175781 338.820312 206.863281 C 339.269531 207.585938 339.40625 208.757812 339.371094 209.445312 C 339.371094 209.960938 339.269531 210.308594 339.027344 210.753906 C 338.648438 211.375 337.785156 212.269531 337.167969 212.648438 C 336.753906 212.925781 336.410156 213.027344 335.925781 213.0625 C 335.203125 213.132812 333.964844 212.890625 333.308594 212.613281 C 332.863281 212.40625 332.550781 212.132812 332.242188 211.789062 C 331.96875 211.476562 331.691406 211.167969 331.519531 210.6875 C 331.277344 210.03125 331.070312 208.859375 331.242188 208.070312 C 331.414062 207.242188 331.96875 206.347656 332.621094 205.796875 C 333.277344 205.277344 334.238281 204.898438 335.066406 204.867188 C 335.925781 204.796875 336.925781 205.175781 337.613281 205.589844 C 338.234375 205.933594 338.613281 206.382812 339.09375 207.070312 C 339.820312 208.101562 340.816406 209.859375 341.195312 211.375 C 341.574219 212.820312 341.367188 215.921875 341.472656 215.921875 C 341.574219 215.921875 341.644531 211.445312 341.886719 211.375 C 342.023438 211.375 342.230469 211.925781 342.332031 212.269531 C 342.46875 212.820312 342.644531 213.578125 342.503906 214.265625 C 342.296875 215.09375 341.746094 216.230469 341.023438 216.816406 C 340.335938 217.367188 339.164062 217.78125 338.269531 217.746094 C 337.339844 217.710938 336.410156 217.195312 335.546875 216.609375 C 334.550781 215.921875 333.242188 214.644531 332.757812 213.714844 C 332.414062 213.0625 332.34375 212.40625 332.378906 211.789062 C 332.414062 211.132812 332.621094 210.445312 332.964844 209.894531 C 333.277344 209.34375 333.792969 208.792969 334.34375 208.480469 C 334.894531 208.136719 335.546875 207.863281 336.238281 207.863281 C 337.0625 207.863281 339.027344 208.722656 339.027344 208.722656 " clip-rule="nonzero"/></clipPath><clipPath id="d38f3d259a"><path d="M 0.125 0.855469 L 11.566406 0.855469 L 11.566406 13.777344 L 0.125 13.777344 Z M 0.125 0.855469 " clip-rule="nonzero"/></clipPath><clipPath id="6776215c09"><path d="M 8.027344 4.722656 C 11.367188 8.269531 11.644531 9.371094 11.503906 10.265625 C 11.332031 11.164062 10.746094 12.230469 10.023438 12.816406 C 9.335938 13.367188 8.09375 13.710938 7.269531 13.746094 C 6.582031 13.746094 5.890625 13.503906 5.339844 13.195312 C 4.789062 12.882812 4.167969 12.507812 3.929688 11.816406 C 3.550781 10.820312 4.273438 7.238281 4.410156 7.269531 C 4.515625 7.269531 5.066406 11.4375 4.6875 11.574219 C 4.273438 11.714844 2.308594 7.925781 2.035156 7.960938 C 1.929688 7.996094 2 8.375 1.929688 8.375 C 1.757812 8.441406 1.242188 7.824219 0.96875 7.445312 C 0.691406 7.097656 0.449219 6.753906 0.347656 6.273438 C 0.175781 5.582031 0.175781 4.308594 0.382812 3.621094 C 0.484375 3.140625 0.65625 2.828125 1 2.449219 C 1.484375 1.933594 2.378906 1.210938 3.207031 1.003906 C 3.996094 0.761719 5.066406 0.832031 5.824219 1.140625 C 6.613281 1.453125 7.40625 2.175781 7.820312 2.863281 C 8.269531 3.585938 8.40625 4.757812 8.371094 5.445312 C 8.371094 5.960938 8.269531 6.308594 8.027344 6.753906 C 7.648438 7.375 6.785156 8.269531 6.167969 8.648438 C 5.753906 8.925781 5.410156 9.027344 4.925781 9.0625 C 4.203125 9.132812 2.964844 8.890625 2.308594 8.613281 C 1.863281 8.40625 1.550781 8.132812 1.242188 7.789062 C 0.96875 7.476562 0.691406 7.167969 0.519531 6.6875 C 0.277344 6.03125 0.0703125 4.859375 0.242188 4.070312 C 0.414062 3.242188 0.96875 2.347656 1.621094 1.796875 C 2.277344 1.277344 3.238281 0.898438 4.066406 0.867188 C 4.925781 0.796875 5.925781 1.175781 6.613281 1.589844 C 7.234375 1.933594 7.613281 2.382812 8.09375 3.070312 C 8.820312 4.101562 9.816406 5.859375 10.195312 7.375 C 10.574219 8.820312 10.367188 11.921875 10.472656 11.921875 C 10.574219 11.921875 10.644531 7.445312 10.886719 7.375 C 11.023438 7.375 11.230469 7.925781 11.332031 8.269531 C 11.46875 8.820312 11.644531 9.578125 11.503906 10.265625 C 11.296875 11.09375 10.746094 12.230469 10.023438 12.816406 C 9.335938 13.367188 8.164062 13.78125 7.269531 13.746094 C 6.339844 13.710938 5.410156 13.195312 4.546875 12.609375 C 3.550781 11.921875 2.242188 10.644531 1.757812 9.714844 C 1.414062 9.0625 1.34375 8.40625 1.378906 7.789062 C 1.414062 7.132812 1.621094 6.445312 1.964844 5.894531 C 2.277344 5.34375 2.792969 4.792969 3.34375 4.480469 C 3.894531 4.136719 4.546875 3.863281 5.238281 3.863281 C 6.0625 3.863281 8.027344 4.722656 8.027344 4.722656 " clip-rule="nonzero"/></clipPath><clipPath id="47631ea6c2"><rect x="0" width="12" y="0" height="14"/></clipPath><clipPath id="994166dc7a"><rect x="0" width="497" y="0" height="535"/></clipPath></defs><g transform="matrix(1, 0, 0, 1, 216, 371)"><g clip-path="url(#994166dc7a)"><g transform="matrix(1, 0, 0, 1, 170, 66)"><g clip-path="url(#cdf005be68)"><g fill="#ff5757" fill-opacity="1"><g transform="translate(0.734922, 361.384701)"><g><path d="M 193.203125 -109.28125 C 186.691406 -108.757812 180.117188 -108.300781 173.484375 -107.90625 C 166.847656 -107.519531 160.019531 -107.066406 153 -106.546875 C 153 -103.171875 153.453125 -100.242188 154.359375 -97.765625 C 155.273438 -95.296875 155.992188 -92.757812 156.515625 -90.15625 C 158.585938 -82.613281 160.40625 -74.9375 161.96875 -67.125 C 163.53125 -59.320312 164.3125 -51.519531 164.3125 -43.71875 C 164.832031 -20.039062 155.078125 -2.347656 135.046875 9.359375 C 107.984375 25.234375 79.097656 28.878906 48.390625 20.296875 C 39.023438 17.691406 30.894531 12.679688 24 5.265625 C 17.101562 -2.148438 12.160156 -10.929688 9.171875 -21.078125 C 6.179688 -31.222656 5.597656 -41.367188 7.421875 -51.515625 C 9.753906 -63.222656 14.238281 -73.046875 20.875 -80.984375 C 27.507812 -88.921875 36.160156 -95.363281 46.828125 -100.3125 C 52.816406 -103.425781 59.128906 -105.894531 65.765625 -107.71875 C 72.398438 -109.539062 78.96875 -111.101562 85.46875 -112.40625 C 90.414062 -113.1875 93.210938 -114.097656 93.859375 -115.140625 C 94.515625 -116.179688 94.0625 -118.910156 92.5 -123.328125 C 88.332031 -136.335938 84.164062 -149.347656 80 -162.359375 C 75.84375 -175.367188 72.460938 -188.507812 69.859375 -201.78125 C 68.035156 -211.664062 67.054688 -221.550781 66.921875 -231.4375 C 66.796875 -241.332031 68.296875 -251.09375 71.421875 -260.71875 C 75.066406 -272.945312 80.859375 -283.09375 88.796875 -291.15625 C 96.734375 -299.226562 107.078125 -304.5625 119.828125 -307.15625 C 132.835938 -309.757812 145.519531 -307.9375 157.875 -301.6875 C 170.238281 -295.445312 179.148438 -286.210938 184.609375 -273.984375 C 187.734375 -266.960938 190.078125 -259.675781 191.640625 -252.125 C 193.203125 -244.582031 193.59375 -236.910156 192.8125 -229.109375 C 192.550781 -225.203125 191.960938 -222.789062 191.046875 -221.875 C 190.140625 -220.96875 187.734375 -220.125 183.828125 -219.34375 C 181.222656 -219.082031 178.554688 -218.753906 175.828125 -218.359375 C 173.097656 -217.972656 170.300781 -217.519531 167.4375 -217 C 163.007812 -216.476562 160.273438 -218.5625 159.234375 -223.25 C 158.203125 -227.9375 157.164062 -232.488281 156.125 -236.90625 C 155.082031 -241.332031 153.910156 -245.757812 152.609375 -250.1875 C 150.003906 -259.8125 145.835938 -269.175781 140.109375 -278.28125 C 138.554688 -280.625 136.800781 -282.769531 134.84375 -284.71875 C 132.894531 -286.675781 130.359375 -287.394531 127.234375 -286.875 C 124.109375 -286.613281 121.765625 -285.3125 120.203125 -282.96875 C 118.648438 -280.625 117.351562 -278.148438 116.3125 -275.546875 C 113.1875 -266.960938 111.425781 -258.3125 111.03125 -249.59375 C 110.644531 -240.875 111.101562 -232.09375 112.40625 -223.25 C 113.445312 -217.519531 114.8125 -211.859375 116.5 -206.265625 C 118.195312 -200.671875 120.082031 -195.015625 122.15625 -189.296875 C 126.0625 -179.148438 129.835938 -169 133.484375 -158.84375 C 137.128906 -148.695312 140.769531 -138.550781 144.40625 -128.40625 C 146.226562 -123.71875 147.722656 -120.984375 148.890625 -120.203125 C 150.066406 -119.429688 153.125 -119.175781 158.0625 -119.4375 C 168.21875 -120.21875 178.429688 -120.992188 188.703125 -121.765625 C 198.984375 -122.546875 209.195312 -124.109375 219.34375 -126.453125 C 220.644531 -126.710938 222.46875 -127.101562 224.8125 -127.625 C 228.195312 -127.882812 230.148438 -126.191406 230.671875 -122.546875 C 231.191406 -118.910156 229.890625 -116.703125 226.765625 -115.921875 C 221.035156 -114.617188 215.4375 -113.25 209.96875 -111.8125 C 204.507812 -110.382812 198.921875 -109.539062 193.203125 -109.28125 Z M 92.5 6.25 C 100.300781 3.644531 106.023438 -0.773438 109.671875 -7.015625 C 113.316406 -13.265625 115.140625 -21.984375 115.140625 -33.171875 C 114.359375 -42.796875 112.597656 -52.941406 109.859375 -63.609375 C 107.128906 -74.285156 104.207031 -84.957031 101.09375 -95.625 C 100.050781 -99.789062 97.316406 -101.351562 92.890625 -100.3125 C 86.648438 -99.269531 80.40625 -97.835938 74.15625 -96.015625 C 67.914062 -94.191406 62.0625 -91.457031 56.59375 -87.8125 C 47.226562 -82.09375 40.722656 -73.898438 37.078125 -63.234375 C 30.578125 -42.929688 33.570312 -24.195312 46.0625 -7.03125 C 51.519531 0.519531 58.347656 5.398438 66.546875 7.609375 C 74.742188 9.816406 83.394531 9.363281 92.5 6.25 Z M 92.5 6.25 "/></g></g></g></g></g><g clip-path="url(#ef31b8966b)"><g transform="matrix(1, 0, 0, 1, 176, 71)"><g clip-path="url(#e1b80c7d55)"><g fill="#000000" fill-opacity="1"><g transform="translate(0.245019, 361.894741)"><g><path d="M 193.203125 -109.28125 C 186.691406 -108.757812 180.117188 -108.300781 173.484375 -107.90625 C 166.847656 -107.519531 160.019531 -107.066406 153 -106.546875 C 153 -103.171875 153.453125 -100.242188 154.359375 -97.765625 C 155.273438 -95.296875 155.992188 -92.757812 156.515625 -90.15625 C 158.585938 -82.613281 160.40625 -74.9375 161.96875 -67.125 C 163.53125 -59.320312 164.3125 -51.519531 164.3125 -43.71875 C 164.832031 -20.039062 155.078125 -2.347656 135.046875 9.359375 C 107.984375 25.234375 79.097656 28.878906 48.390625 20.296875 C 39.023438 17.691406 30.894531 12.679688 24 5.265625 C 17.101562 -2.148438 12.160156 -10.929688 9.171875 -21.078125 C 6.179688 -31.222656 5.597656 -41.367188 7.421875 -51.515625 C 9.753906 -63.222656 14.238281 -73.046875 20.875 -80.984375 C 27.507812 -88.921875 36.160156 -95.363281 46.828125 -100.3125 C 52.816406 -103.425781 59.128906 -105.894531 65.765625 -107.71875 C 72.398438 -109.539062 78.96875 -111.101562 85.46875 -112.40625 C 90.414062 -113.1875 93.210938 -114.097656 93.859375 -115.140625 C 94.515625 -116.179688 94.0625 -118.910156 92.5 -123.328125 C 88.332031 -136.335938 84.164062 -149.347656 80 -162.359375 C 75.84375 -175.367188 72.460938 -188.507812 69.859375 -201.78125 C 68.035156 -211.664062 67.054688 -221.550781 66.921875 -231.4375 C 66.796875 -241.332031 68.296875 -251.09375 71.421875 -260.71875 C 75.066406 -272.945312 80.859375 -283.09375 88.796875 -291.15625 C 96.734375 -299.226562 107.078125 -304.5625 119.828125 -307.15625 C 132.835938 -309.757812 145.519531 -307.9375 157.875 -301.6875 C 170.238281 -295.445312 179.148438 -286.210938 184.609375 -273.984375 C 187.734375 -266.960938 190.078125 -259.675781 191.640625 -252.125 C 193.203125 -244.582031 193.59375 -236.910156 192.8125 -229.109375 C 192.550781 -225.203125 191.960938 -222.789062 191.046875 -221.875 C 190.140625 -220.96875 187.734375 -220.125 183.828125 -219.34375 C 181.222656 -219.082031 178.554688 -218.753906 175.828125 -218.359375 C 173.097656 -217.972656 170.300781 -217.519531 167.4375 -217 C 163.007812 -216.476562 160.273438 -218.5625 159.234375 -223.25 C 158.203125 -227.9375 157.164062 -232.488281 156.125 -236.90625 C 155.082031 -241.332031 153.910156 -245.757812 152.609375 -250.1875 C 150.003906 -259.8125 145.835938 -269.175781 140.109375 -278.28125 C 138.554688 -280.625 136.800781 -282.769531 134.84375 -284.71875 C 132.894531 -286.675781 130.359375 -287.394531 127.234375 -286.875 C 124.109375 -286.613281 121.765625 -285.3125 120.203125 -282.96875 C 118.648438 -280.625 117.351562 -278.148438 116.3125 -275.546875 C 113.1875 -266.960938 111.425781 -258.3125 111.03125 -249.59375 C 110.644531 -240.875 111.101562 -232.09375 112.40625 -223.25 C 113.445312 -217.519531 114.8125 -211.859375 116.5 -206.265625 C 118.195312 -200.671875 120.082031 -195.015625 122.15625 -189.296875 C 126.0625 -179.148438 129.835938 -169 133.484375 -158.84375 C 137.128906 -148.695312 140.769531 -138.550781 144.40625 -128.40625 C 146.226562 -123.71875 147.722656 -120.984375 148.890625 -120.203125 C 150.066406 -119.429688 153.125 -119.175781 158.0625 -119.4375 C 168.21875 -120.21875 178.429688 -120.992188 188.703125 -121.765625 C 198.984375 -122.546875 209.195312 -124.109375 219.34375 -126.453125 C 220.644531 -126.710938 222.46875 -127.101562 224.8125 -127.625 C 228.195312 -127.882812 230.148438 -126.191406 230.671875 -122.546875 C 231.191406 -118.910156 229.890625 -116.703125 226.765625 -115.921875 C 221.035156 -114.617188 215.4375 -113.25 209.96875 -111.8125 C 204.507812 -110.382812 198.921875 -109.539062 193.203125 -109.28125 Z M 92.5 6.25 C 100.300781 3.644531 106.023438 -0.773438 109.671875 -7.015625 C 113.316406 -13.265625 115.140625 -21.984375 115.140625 -33.171875 C 114.359375 -42.796875 112.597656 -52.941406 109.859375 -63.609375 C 107.128906 -74.285156 104.207031 -84.957031 101.09375 -95.625 C 100.050781 -99.789062 97.316406 -101.351562 92.890625 -100.3125 C 86.648438 -99.269531 80.40625 -97.835938 74.15625 -96.015625 C 67.914062 -94.191406 62.0625 -91.457031 56.59375 -87.8125 C 47.226562 -82.09375 40.722656 -73.898438 37.078125 -63.234375 C 30.578125 -42.929688 33.570312 -24.195312 46.0625 -7.03125 C 51.519531 0.519531 58.347656 5.398438 66.546875 7.609375 C 74.742188 9.816406 83.394531 9.363281 92.5 6.25 Z M 92.5 6.25 "/></g></g></g></g></g></g><g clip-path="url(#cacfa3ceb1)"><g transform="matrix(1, 0, 0, 1, 0, 0.000000000000113687)"><g clip-path="url(#4b2a70a3e3)"><g fill="#000000" fill-opacity="1"><g transform="translate(101.137348, 57.121751)"><g><path d="M 138.71875 175 C 137.1875 168.613281 135.707031 162.15625 134.28125 155.625 C 132.863281 149.09375 131.347656 142.375 129.734375 135.46875 C 126.367188 135.988281 123.53125 136.894531 121.21875 138.1875 C 118.90625 139.476562 116.492188 140.585938 113.984375 141.515625 C 106.816406 144.765625 99.472656 147.769531 91.953125 150.53125 C 84.441406 153.289062 76.804688 155.28125 69.046875 156.5 C 45.597656 160.707031 26.488281 153.765625 11.71875 135.671875 C -8.257812 111.265625 -16.378906 83.125 -12.640625 51.25 C -11.515625 41.550781 -7.800781 32.695312 -1.5 24.6875 C 4.789062 16.675781 12.75 10.390625 22.375 5.828125 C 32 1.273438 41.992188 -0.890625 52.359375 -0.671875 C 64.359375 -0.148438 74.816406 2.785156 83.734375 8.140625 C 92.660156 13.492188 100.414062 21.09375 107 30.9375 C 111.019531 36.394531 114.453125 42.273438 117.296875 48.578125 C 120.148438 54.890625 122.734375 61.179688 125.046875 67.453125 C 126.585938 72.242188 127.925781 74.878906 129.0625 75.359375 C 130.195312 75.847656 132.835938 74.96875 136.984375 72.71875 C 149.273438 66.5625 161.5625 60.398438 173.84375 54.234375 C 186.125 48.078125 198.65625 42.664062 211.4375 38 C 220.988281 34.65625 230.664062 32.144531 240.46875 30.46875 C 250.28125 28.800781 260.210938 28.769531 270.265625 30.375 C 282.992188 32.09375 293.984375 36.269531 303.234375 42.90625 C 312.484375 49.539062 319.394531 58.988281 323.96875 71.25 C 328.570312 83.78125 328.734375 96.671875 324.453125 109.921875 C 320.179688 123.179688 312.390625 133.476562 301.078125 140.8125 C 294.578125 145.019531 287.703125 148.484375 280.453125 151.203125 C 273.203125 153.921875 265.632812 155.503906 257.75 155.953125 C 253.820312 156.296875 251.335938 156.085938 250.296875 155.328125 C 249.253906 154.578125 248.046875 152.316406 246.671875 148.546875 C 245.992188 145.992188 245.25 143.394531 244.4375 140.75 C 243.625 138.101562 242.734375 135.394531 241.765625 132.625 C 240.566406 128.300781 242.207031 125.253906 246.6875 123.484375 C 251.1875 121.722656 255.554688 119.984375 259.796875 118.265625 C 264.035156 116.546875 268.25 114.691406 272.4375 112.703125 C 281.601562 108.617188 290.265625 103.023438 298.421875 95.921875 C 300.515625 94.003906 302.375 91.921875 304 89.671875 C 305.632812 87.421875 305.953125 84.789062 304.953125 81.78125 C 304.203125 78.71875 302.539062 76.59375 299.96875 75.40625 C 297.40625 74.21875 294.75 73.3125 292 72.6875 C 282.976562 70.90625 274.101562 70.5 265.375 71.46875 C 256.644531 72.445312 247.988281 74.273438 239.40625 76.953125 C 233.875 78.867188 228.457031 81.101562 223.15625 83.65625 C 217.863281 86.207031 212.539062 88.96875 207.1875 91.9375 C 197.695312 97.40625 188.191406 102.738281 178.671875 107.9375 C 169.148438 113.132812 159.632812 118.332031 150.125 123.53125 C 145.757812 126.070312 143.273438 127.984375 142.671875 129.265625 C 142.078125 130.554688 142.296875 133.632812 143.328125 138.5 C 145.679688 148.46875 148.046875 158.5 150.421875 168.59375 C 152.796875 178.6875 155.941406 188.597656 159.859375 198.328125 C 160.316406 199.566406 160.988281 201.3125 161.875 203.5625 C 162.664062 206.882812 161.289062 209.085938 157.75 210.171875 C 154.195312 211.265625 151.796875 210.316406 150.546875 207.328125 C 148.347656 201.835938 146.113281 196.488281 143.84375 191.28125 C 141.582031 186.082031 139.875 180.65625 138.71875 175 Z M 8.203125 92.90625 C 12.003906 100.257812 17.289062 105.257812 24.0625 107.90625 C 30.84375 110.5625 39.789062 111.019531 50.90625 109.28125 C 60.351562 106.988281 70.164062 103.65625 80.34375 99.28125 C 90.53125 94.914062 100.679688 90.347656 110.796875 85.578125 C 114.765625 83.890625 115.890625 80.929688 114.171875 76.703125 C 112.160156 70.660156 109.765625 64.675781 106.984375 58.75 C 104.203125 52.832031 100.570312 47.441406 96.09375 42.578125 C 88.945312 34.148438 79.789062 28.957031 68.625 27 C 47.4375 23.695312 29.28125 29.585938 14.15625 44.671875 C 7.507812 51.285156 3.722656 58.835938 2.796875 67.328125 C 1.867188 75.816406 3.671875 84.34375 8.203125 92.90625 Z M 8.203125 92.90625 "/></g></g></g></g></g></g><g clip-path="url(#e8c8393122)"><g clip-path="url(#295381544a)"><g transform="matrix(1, 0, 0, 1, 332, 207)"><g clip-path="url(#bec78e60f5)"><g clip-path="url(#7c9ea8203f)"><g clip-path="url(#bef93312e3)"><rect x="-1094" width="2592" fill="#ff5757" y="-1123.999976" height="2591.999885" fill-opacity="1"/></g></g></g></g></g></g><g clip-path="url(#eed8930b40)"><g clip-path="url(#871d5c9af4)"><g transform="matrix(1, 0, 0, 1, 331, 204)"><g clip-path="url(#47631ea6c2)"><g clip-path="url(#d38f3d259a)"><g clip-path="url(#6776215c09)"><rect x="-1093" width="2592" fill="#000000" y="-1120.999976" height="2591.999885" fill-opacity="1"/></g></g></g></g></g></g></g></g><g fill="#000000" fill-opacity="1"><g transform="translate(625.166884, 800.209591)"><g><path d="M 27.484375 -68.71875 C 27.773438 -68.71875 28.144531 -68.640625 28.59375 -68.484375 C 30.070312 -71.148438 31.550781 -73.8125 33.03125 -76.46875 C 34.507812 -79.132812 36.0625 -81.722656 37.6875 -84.234375 C 39.3125 -87.035156 41.082031 -89.726562 43 -92.3125 C 44.925781 -94.90625 47.066406 -97.382812 49.421875 -99.75 C 50.898438 -101.226562 52.5625 -102.59375 54.40625 -103.84375 C 56.257812 -105.101562 58.222656 -106.101562 60.296875 -106.84375 C 64.867188 -108.164062 69.039062 -107.90625 72.8125 -106.0625 C 76.582031 -104.21875 79.207031 -101.003906 80.6875 -96.421875 C 81.863281 -92.867188 82.632812 -89.207031 83 -85.4375 C 83.375 -81.675781 83.5625 -77.875 83.5625 -74.03125 C 83.707031 -66.5 83.78125 -59 83.78125 -51.53125 C 83.78125 -44.070312 83.78125 -36.570312 83.78125 -29.03125 C 83.78125 -24.601562 83.960938 -20.207031 84.328125 -15.84375 C 84.703125 -11.488281 85.332031 -7.164062 86.21875 -2.875 C 86.519531 -1.40625 86.851562 0.03125 87.21875 1.4375 C 87.59375 2.84375 88.296875 4.210938 89.328125 5.546875 C 90.953125 4.660156 92.242188 3.476562 93.203125 2 C 94.160156 0.519531 95.085938 -0.957031 95.984375 -2.4375 C 98.191406 -6.28125 100.179688 -10.195312 101.953125 -14.1875 C 103.734375 -18.175781 105.507812 -22.164062 107.28125 -26.15625 C 109.9375 -32.507812 112.59375 -38.789062 115.25 -45 C 117.914062 -51.207031 120.503906 -57.488281 123.015625 -63.84375 C 123.609375 -65.164062 124.3125 -66.195312 125.125 -66.9375 C 125.9375 -67.675781 127.226562 -67.75 129 -67.15625 C 131.664062 -66.414062 133.179688 -65.75 133.546875 -65.15625 C 133.921875 -64.570312 133.585938 -63.023438 132.546875 -60.515625 C 129.296875 -51.941406 126.117188 -43.332031 123.015625 -34.6875 C 119.910156 -26.039062 116.363281 -17.507812 112.375 -9.09375 C 111.050781 -6.132812 109.578125 -3.285156 107.953125 -0.546875 C 106.328125 2.179688 104.476562 4.800781 102.40625 7.3125 C 99.445312 10.707031 96.191406 12.8125 92.640625 13.625 C 89.097656 14.4375 85.332031 14.398438 81.34375 13.515625 C 79.425781 13.222656 77.835938 12.445312 76.578125 11.1875 C 75.328125 9.9375 74.257812 8.5 73.375 6.875 C 71.894531 4.0625 70.785156 1.144531 70.046875 -1.875 C 69.304688 -4.90625 68.710938 -7.972656 68.265625 -11.078125 C 67.679688 -14.628906 67.273438 -18.175781 67.046875 -21.71875 C 66.828125 -25.269531 66.71875 -28.816406 66.71875 -32.359375 C 66.570312 -41.671875 66.421875 -50.976562 66.265625 -60.28125 C 66.117188 -69.59375 65.972656 -78.90625 65.828125 -88.21875 C 65.828125 -89.695312 65.863281 -91.285156 65.9375 -92.984375 C 66.007812 -94.679688 65.015625 -95.753906 62.953125 -96.203125 C 61.179688 -96.640625 59.773438 -96.191406 58.734375 -94.859375 C 57.703125 -93.535156 56.816406 -92.207031 56.078125 -90.875 C 49.578125 -80.832031 43.8125 -70.453125 38.78125 -59.734375 C 33.757812 -49.023438 29.921875 -37.757812 27.265625 -25.9375 C 26.523438 -22.53125 25.820312 -19.128906 25.15625 -15.734375 C 24.488281 -12.335938 24.007812 -8.941406 23.71875 -5.546875 C 23.425781 -2.296875 21.578125 -0.445312 18.171875 0 C 17.140625 0 16.179688 0 15.296875 0 C 14.410156 0 13.445312 0 12.40625 0 C 8.125 0 5.46875 -2.140625 4.4375 -6.421875 C 3.550781 -9.828125 2.773438 -13.265625 2.109375 -16.734375 C 1.441406 -20.203125 0.960938 -23.710938 0.671875 -27.265625 C -0.660156 -38.347656 -1.289062 -49.429688 -1.21875 -60.515625 C -1.144531 -71.597656 -0.738281 -82.601562 0 -93.53125 C 1.914062 -118.65625 5.390625 -143.484375 10.421875 -168.015625 C 11.304688 -172.296875 12.117188 -175.320312 12.859375 -177.09375 C 13.597656 -178.875 14.890625 -179.945312 16.734375 -180.3125 C 18.578125 -180.6875 21.644531 -180.875 25.9375 -180.875 C 30.363281 -180.875 32.945312 -180.503906 33.6875 -179.765625 C 34.425781 -179.023438 34.722656 -176.585938 34.578125 -172.453125 C 34.128906 -164.316406 33.644531 -156.1875 33.125 -148.0625 C 32.613281 -139.9375 32.140625 -131.8125 31.703125 -123.6875 C 30.960938 -114.519531 30.257812 -105.351562 29.59375 -96.1875 C 28.925781 -87.03125 28.222656 -77.875 27.484375 -68.71875 Z M 27.484375 -68.71875 "/></g></g></g><g fill="#000000" fill-opacity="1"><g transform="translate(736.437332, 800.209591)"><g><path d="M 42.78125 -107.0625 C 42.78125 -107.65625 42.851562 -108.28125 43 -108.9375 C 43.144531 -109.601562 43.070312 -110.378906 42.78125 -111.265625 C 39.226562 -111.710938 35.640625 -112.117188 32.015625 -112.484375 C 28.398438 -112.859375 24.820312 -113.488281 21.28125 -114.375 C 20.976562 -110.976562 20.679688 -107.691406 20.390625 -104.515625 C 20.097656 -101.335938 19.878906 -98.195312 19.734375 -95.09375 C 18.691406 -80.457031 17.0625 -65.863281 14.84375 -51.3125 C 12.632812 -36.757812 9.976562 -22.242188 6.875 -7.765625 C 6.875 -7.460938 6.835938 -7.160156 6.765625 -6.859375 C 6.691406 -6.566406 6.578125 -6.273438 6.421875 -5.984375 C 4.953125 0.0742188 1.332031 1.847656 -4.4375 -0.671875 C -5.320312 -0.960938 -5.835938 -1.441406 -5.984375 -2.109375 C -6.128906 -2.773438 -6.203125 -3.476562 -6.203125 -4.21875 C -6.054688 -7.019531 -5.796875 -9.820312 -5.421875 -12.625 C -5.054688 -15.4375 -4.65625 -18.25 -4.21875 -21.0625 C -2.289062 -31.695312 -0.773438 -42.40625 0.328125 -53.1875 C 1.441406 -63.976562 2.289062 -74.84375 2.875 -85.78125 C 3.175781 -90.945312 3.546875 -96.078125 3.984375 -101.171875 C 4.429688 -106.273438 4.875 -111.34375 5.3125 -116.375 C 5.3125 -117.257812 5.421875 -118.109375 5.640625 -118.921875 C 5.867188 -119.734375 6.054688 -120.507812 6.203125 -121.25 C 6.503906 -124.5 8.351562 -125.828125 11.75 -125.234375 C 14.40625 -124.941406 16.988281 -124.609375 19.5 -124.234375 C 22.019531 -123.867188 24.460938 -123.019531 26.828125 -121.6875 C 29.035156 -120.351562 31.359375 -119.460938 33.796875 -119.015625 C 36.234375 -118.578125 38.710938 -118.285156 41.234375 -118.140625 C 44.179688 -117.992188 47.132812 -117.921875 50.09375 -117.921875 C 53.050781 -117.921875 56.003906 -117.921875 58.953125 -117.921875 C 63.097656 -117.921875 66.019531 -116.992188 67.71875 -115.140625 C 69.414062 -113.296875 69.96875 -110.304688 69.375 -106.171875 C 68.632812 -100.554688 67.785156 -94.90625 66.828125 -89.21875 C 65.867188 -83.53125 65.019531 -77.878906 64.28125 -72.265625 C 62.800781 -62.503906 61.765625 -52.785156 61.171875 -43.109375 C 60.585938 -33.429688 60.515625 -23.71875 60.953125 -13.96875 C 61.097656 -9.976562 61.46875 -5.945312 62.0625 -1.875 C 62.65625 2.183594 63.539062 6.132812 64.71875 9.96875 C 65.457031 12.332031 66.304688 13.625 67.265625 13.84375 C 68.234375 14.070312 69.601562 13.375 71.375 11.75 C 74.03125 9.53125 76.351562 7.015625 78.34375 4.203125 C 80.34375 1.398438 82.226562 -1.476562 84 -4.4375 C 87.550781 -10.789062 90.617188 -17.289062 93.203125 -23.9375 C 95.785156 -30.582031 98.257812 -37.378906 100.625 -44.328125 C 102.101562 -48.910156 103.691406 -53.53125 105.390625 -58.1875 C 107.097656 -62.84375 108.765625 -67.457031 110.390625 -72.03125 C 110.679688 -72.769531 111.007812 -73.546875 111.375 -74.359375 C 111.75 -75.171875 112.378906 -75.65625 113.265625 -75.8125 C 114.597656 -75.8125 115.960938 -75.734375 117.359375 -75.578125 C 118.765625 -75.429688 120.0625 -74.988281 121.25 -74.25 C 121.6875 -73.957031 121.90625 -73.550781 121.90625 -73.03125 C 121.90625 -72.519531 121.832031 -71.96875 121.6875 -71.375 C 121.394531 -70.1875 121.097656 -69 120.796875 -67.8125 C 120.503906 -66.632812 120.210938 -65.457031 119.921875 -64.28125 C 116.816406 -54.082031 113.523438 -44.03125 110.046875 -34.125 C 106.578125 -24.226562 102.332031 -14.550781 97.3125 -5.09375 C 95.238281 -1.101562 92.910156 2.695312 90.328125 6.3125 C 87.742188 9.9375 84.820312 13.375 81.5625 16.625 C 79.050781 19.132812 75.578125 20.796875 71.140625 21.609375 C 66.710938 22.421875 62.394531 22.382812 58.1875 21.5 C 53.976562 20.613281 50.835938 18.988281 48.765625 16.625 C 46.847656 14.40625 45.148438 11.96875 43.671875 9.3125 C 40.421875 3.25 38.128906 -3.101562 36.796875 -9.75 C 35.460938 -16.40625 34.722656 -23.128906 34.578125 -29.921875 C 34.429688 -55.628906 37.164062 -81.34375 42.78125 -107.0625 Z M 42.78125 -107.0625 "/></g></g></g><g fill="#000000" fill-opacity="1"><g transform="translate(835.738429, 800.209591)"><g><path d="M 65.171875 -64.9375 C 66.941406 -64.207031 67.789062 -63.285156 67.71875 -62.171875 C 67.644531 -61.066406 67.3125 -59.921875 66.71875 -58.734375 C 64.0625 -52.523438 61.363281 -46.242188 58.625 -39.890625 C 55.894531 -33.535156 53.125 -27.179688 50.3125 -20.828125 C 49.425781 -18.910156 48.539062 -17.023438 47.65625 -15.171875 C 46.769531 -13.328125 45.8125 -11.445312 44.78125 -9.53125 C 42.257812 -5.25 38.742188 -2.296875 34.234375 -0.671875 C 29.734375 0.949219 25.117188 1.25 20.390625 0.21875 C 15.660156 -0.808594 11.816406 -3.320312 8.859375 -7.3125 C 6.941406 -9.820312 5.425781 -12.476562 4.3125 -15.28125 C 3.207031 -18.09375 2.285156 -20.976562 1.546875 -23.9375 C 0.367188 -28.519531 -0.398438 -33.175781 -0.765625 -37.90625 C -1.140625 -42.632812 -1.253906 -47.066406 -1.109375 -51.203125 C -1.253906 -60.359375 -0.699219 -69.148438 0.546875 -77.578125 C 1.804688 -86.003906 3.546875 -94.351562 5.765625 -102.625 C 5.910156 -103.507812 6.164062 -104.394531 6.53125 -105.28125 C 6.90625 -106.164062 7.238281 -107.054688 7.53125 -107.953125 C 8.269531 -110.015625 9.675781 -110.972656 11.75 -110.828125 C 12.1875 -110.828125 12.550781 -110.828125 12.84375 -110.828125 C 13.144531 -110.828125 13.445312 -110.828125 13.75 -110.828125 C 18.175781 -110.679688 20.796875 -110.203125 21.609375 -109.390625 C 22.421875 -108.578125 22.609375 -106.023438 22.171875 -101.734375 C 21.578125 -92.867188 20.984375 -84.078125 20.390625 -75.359375 C 19.796875 -66.640625 19.648438 -57.921875 19.953125 -49.203125 C 20.097656 -44.328125 20.242188 -39.488281 20.390625 -34.6875 C 20.535156 -29.882812 21.050781 -25.117188 21.9375 -20.390625 C 22.238281 -18.472656 22.679688 -16.625 23.265625 -14.84375 C 23.859375 -13.070312 24.597656 -11.375 25.484375 -9.75 C 27.410156 -6.351562 29.40625 -6.207031 31.46875 -9.3125 C 32.363281 -10.488281 33.140625 -11.742188 33.796875 -13.078125 C 34.460938 -14.410156 35.164062 -15.738281 35.90625 -17.0625 C 39.601562 -24.15625 43.257812 -31.285156 46.875 -38.453125 C 50.5 -45.617188 54.160156 -52.75 57.859375 -59.84375 C 58.003906 -60.289062 58.1875 -60.695312 58.40625 -61.0625 C 58.625 -61.4375 58.804688 -61.84375 58.953125 -62.28125 C 59.992188 -64.207031 60.84375 -65.28125 61.5 -65.5 C 62.164062 -65.71875 63.390625 -65.53125 65.171875 -64.9375 Z M 18.625 -122.578125 C 12.414062 -122.429688 9.238281 -124.867188 9.09375 -129.890625 C 8.9375 -132.703125 9.742188 -135.101562 11.515625 -137.09375 C 13.296875 -139.09375 15.441406 -140.09375 17.953125 -140.09375 C 21.054688 -140.09375 23.53125 -139.351562 25.375 -137.875 C 27.226562 -136.394531 28.15625 -134.320312 28.15625 -131.65625 C 28.15625 -125.75 24.976562 -122.722656 18.625 -122.578125 Z M 18.625 -122.578125 "/></g></g></g><g fill="#000000" fill-opacity="1"><g transform="translate(888.270377, 800.209591)"><g><path d="M 41.890625 -31.03125 C 40.554688 -30.582031 39.148438 -30.0625 37.671875 -29.46875 C 36.203125 -28.882812 34.582031 -28.222656 32.8125 -27.484375 C 34.28125 -26.304688 35.566406 -25.269531 36.671875 -24.375 C 37.785156 -23.488281 38.785156 -22.601562 39.671875 -21.71875 C 44.109375 -17.875 47.800781 -13.625 50.75 -8.96875 C 53.707031 -4.320312 55.554688 0.957031 56.296875 6.875 C 56.742188 10.863281 56.523438 14.851562 55.640625 18.84375 C 54.753906 22.09375 53.535156 25.082031 51.984375 27.8125 C 50.429688 30.550781 47.953125 32.4375 44.546875 33.46875 C 40.554688 34.65625 36.640625 34.988281 32.796875 34.46875 C 28.960938 33.945312 25.421875 32.210938 22.171875 29.265625 C 20.097656 27.484375 18.359375 25.410156 16.953125 23.046875 C 15.546875 20.679688 14.253906 18.316406 13.078125 15.953125 C 10.710938 11.078125 8.863281 6.050781 7.53125 0.875 C 6.207031 -4.289062 5.101562 -9.53125 4.21875 -14.84375 C 2 -29.332031 1.035156 -43.78125 1.328125 -58.1875 C 1.617188 -72.59375 3.613281 -86.890625 7.3125 -101.078125 C 11.15625 -115.847656 17.289062 -129.585938 25.71875 -142.296875 C 28.375 -146.140625 31.328125 -149.757812 34.578125 -153.15625 C 37.828125 -156.5625 41.597656 -159.375 45.890625 -161.59375 C 48.984375 -163.21875 52.15625 -164.4375 55.40625 -165.25 C 58.664062 -166.0625 62.140625 -166.171875 65.828125 -165.578125 C 76.023438 -163.503906 82.601562 -157.296875 85.5625 -146.953125 C 86.59375 -143.265625 87 -139.535156 86.78125 -135.765625 C 86.5625 -131.992188 86.082031 -128.265625 85.34375 -124.578125 C 84.75 -121.765625 84.082031 -118.988281 83.34375 -116.25 C 82.601562 -113.519531 81.789062 -110.828125 80.90625 -108.171875 C 77.0625 -96.941406 71.257812 -87.664062 63.5 -80.34375 C 55.75 -73.03125 46.253906 -67.53125 35.015625 -63.84375 C 32.066406 -62.800781 30.332031 -61.945312 29.8125 -61.28125 C 29.289062 -60.625 29.03125 -58.742188 29.03125 -55.640625 C 29.03125 -52.390625 28.992188 -49.0625 28.921875 -45.65625 C 28.847656 -42.257812 28.960938 -38.710938 29.265625 -35.015625 C 35.023438 -36.492188 40.820312 -38.597656 46.65625 -41.328125 C 52.5 -44.066406 58.078125 -46.691406 63.390625 -49.203125 C 67.679688 -51.273438 71.671875 -53.898438 75.359375 -57.078125 C 79.054688 -60.253906 82.898438 -63.242188 86.890625 -66.046875 C 87.628906 -66.640625 88.40625 -67.082031 89.21875 -67.375 C 90.03125 -67.675781 90.804688 -67.234375 91.546875 -66.046875 C 92.285156 -65.015625 92.800781 -64.019531 93.09375 -63.0625 C 93.382812 -62.101562 92.867188 -61.101562 91.546875 -60.0625 C 87.554688 -56.96875 82.601562 -53.5 76.6875 -49.65625 C 70.78125 -45.8125 64.722656 -42.222656 58.515625 -38.890625 C 52.304688 -35.566406 46.765625 -32.945312 41.890625 -31.03125 Z M 32.359375 -99.078125 C 31.617188 -94.347656 30.988281 -89.65625 30.46875 -85 C 29.957031 -80.34375 29.628906 -75.503906 29.484375 -70.484375 C 30.367188 -70.628906 31.066406 -70.738281 31.578125 -70.8125 C 32.097656 -70.894531 32.507812 -71.007812 32.8125 -71.15625 C 38.570312 -73.664062 43.664062 -76.878906 48.09375 -80.796875 C 52.53125 -84.710938 56.300781 -89.476562 59.40625 -95.09375 C 61.625 -99.375 63.546875 -103.769531 65.171875 -108.28125 C 66.796875 -112.789062 68.269531 -117.332031 69.59375 -121.90625 C 72.257812 -131.363281 71.671875 -140.523438 67.828125 -149.390625 C 66.203125 -153.535156 63.984375 -155.828125 61.171875 -156.265625 C 58.367188 -156.710938 55.488281 -155.3125 52.53125 -152.0625 C 47.0625 -146.144531 43.070312 -139.125 40.5625 -131 C 38.9375 -125.820312 37.347656 -120.570312 35.796875 -115.25 C 34.242188 -109.9375 33.097656 -104.546875 32.359375 -99.078125 Z M 45 17.296875 C 45.289062 10.941406 44.101562 5.175781 41.4375 0 C 38.78125 -5.175781 35.085938 -9.90625 30.359375 -14.1875 C 30.515625 -8.570312 30.773438 -2.992188 31.140625 2.546875 C 31.515625 8.085938 32.289062 13.59375 33.46875 19.0625 C 34.0625 21.570312 34.800781 23.789062 35.6875 25.71875 C 36.570312 27.488281 37.71875 28.375 39.125 28.375 C 40.53125 28.375 41.75 27.488281 42.78125 25.71875 C 43.664062 24.53125 44.253906 23.195312 44.546875 21.71875 C 44.847656 20.238281 45 18.765625 45 17.296875 Z M 45 17.296875 "/></g></g></g><g fill="#000000" fill-opacity="1"><g transform="translate(963.854431, 800.209591)"><g><path d="M 1.546875 -26.59375 C 0.0664062 -35.613281 -0.960938 -44.59375 -1.546875 -53.53125 C -2.140625 -62.46875 -2.140625 -71.222656 -1.546875 -79.796875 C -1.847656 -88.660156 -1.628906 -97.300781 -0.890625 -105.71875 C -0.148438 -114.144531 0.734375 -122.570312 1.765625 -131 C 2.210938 -133.65625 2.210938 -135.203125 1.765625 -135.640625 C 1.328125 -136.085938 -0.296875 -136.3125 -3.109375 -136.3125 C -5.171875 -136.3125 -7.273438 -136.3125 -9.421875 -136.3125 C -11.566406 -136.3125 -13.671875 -136.3125 -15.734375 -136.3125 C -16.921875 -136.46875 -18.101562 -136.65625 -19.28125 -136.875 C -20.46875 -137.09375 -20.984375 -138.164062 -20.828125 -140.09375 C -20.828125 -141.863281 -20.566406 -143.117188 -20.046875 -143.859375 C -19.535156 -144.597656 -18.320312 -145.113281 -16.40625 -145.40625 C -13.59375 -145.851562 -10.78125 -146.257812 -7.96875 -146.625 C -5.164062 -147 -2.363281 -147.257812 0.4375 -147.40625 C 3.394531 -147.695312 5.171875 -149.320312 5.765625 -152.28125 C 6.359375 -155.082031 7.0625 -157.8125 7.875 -160.46875 C 8.6875 -163.132812 9.535156 -165.796875 10.421875 -168.453125 C 11.453125 -171.410156 13.445312 -172.816406 16.40625 -172.671875 C 18.46875 -172.523438 20.492188 -172.488281 22.484375 -172.5625 C 24.484375 -172.632812 26.445312 -172.671875 28.375 -172.671875 C 30.59375 -172.523438 31.957031 -172.15625 32.46875 -171.5625 C 32.988281 -170.96875 33.25 -169.5625 33.25 -167.34375 C 33.394531 -163.65625 33.320312 -159.890625 33.03125 -156.046875 C 32.726562 -153.085938 32.796875 -151.347656 33.234375 -150.828125 C 33.679688 -150.316406 35.457031 -150.0625 38.5625 -150.0625 C 44.769531 -150.207031 51.015625 -150.5 57.296875 -150.9375 C 63.578125 -151.382812 69.820312 -151.460938 76.03125 -151.171875 C 78.6875 -151.171875 81.378906 -151.171875 84.109375 -151.171875 C 86.847656 -151.171875 89.625 -151.019531 92.4375 -150.71875 C 94.800781 -150.570312 96.3125 -150.054688 96.96875 -149.171875 C 97.632812 -148.285156 97.820312 -146.734375 97.53125 -144.515625 C 97.226562 -142.890625 96.488281 -142.003906 95.3125 -141.859375 C 94.28125 -141.710938 93.316406 -141.5625 92.421875 -141.40625 C 91.535156 -141.257812 90.578125 -141.1875 89.546875 -141.1875 C 80.972656 -140.75 72.363281 -140.304688 63.71875 -139.859375 C 55.082031 -139.421875 46.40625 -138.90625 37.6875 -138.3125 C 34.582031 -138.164062 32.734375 -137.832031 32.140625 -137.3125 C 31.546875 -136.800781 31.03125 -134.914062 30.59375 -131.65625 C 29.707031 -123.675781 29.003906 -115.660156 28.484375 -107.609375 C 27.960938 -99.554688 27.410156 -91.539062 26.828125 -83.5625 C 26.234375 -74.550781 25.859375 -65.570312 25.703125 -56.625 C 25.554688 -47.6875 25.5625 -38.710938 25.71875 -29.703125 C 25.863281 -24.523438 26.34375 -19.425781 27.15625 -14.40625 C 27.96875 -9.382812 28.960938 -4.359375 30.140625 0.671875 C 30.585938 2.585938 31.253906 4.582031 32.140625 6.65625 C 33.617188 9.601562 35.171875 11.1875 36.796875 11.40625 C 38.421875 11.632812 40.34375 10.492188 42.5625 7.984375 C 43.445312 7.097656 44.222656 6.132812 44.890625 5.09375 C 45.554688 4.0625 46.179688 3.03125 46.765625 2 C 49.867188 -3.175781 52.414062 -8.5 54.40625 -13.96875 C 56.40625 -19.4375 58.441406 -24.898438 60.515625 -30.359375 C 62.140625 -34.648438 63.648438 -38.898438 65.046875 -43.109375 C 66.453125 -47.316406 67.894531 -51.566406 69.375 -55.859375 C 69.675781 -56.742188 69.972656 -57.628906 70.265625 -58.515625 C 70.554688 -59.398438 71.296875 -59.84375 72.484375 -59.84375 C 75.441406 -59.988281 77.953125 -59.25 80.015625 -57.625 C 80.460938 -57.1875 80.6875 -56.707031 80.6875 -56.1875 C 80.6875 -55.675781 80.613281 -55.195312 80.46875 -54.75 C 77.65625 -45.144531 74.914062 -35.578125 72.25 -26.046875 C 69.59375 -16.515625 65.898438 -7.316406 61.171875 1.546875 C 60.285156 3.328125 59.179688 5.101562 57.859375 6.875 C 53.710938 12.925781 48.609375 16.65625 42.546875 18.0625 C 36.492188 19.46875 30.070312 19.132812 23.28125 17.0625 C 20.757812 16.320312 18.613281 14.992188 16.84375 13.078125 C 15.070312 11.160156 13.519531 9.019531 12.1875 6.65625 C 9.382812 1.476562 7.128906 -3.914062 5.421875 -9.53125 C 3.722656 -15.144531 2.429688 -20.832031 1.546875 -26.59375 Z M 1.546875 -26.59375 "/></g></g></g><g fill="#000000" fill-opacity="1"><g transform="translate(1026.582514, 800.209591)"><g><path d="M 65.171875 -64.9375 C 66.941406 -64.207031 67.789062 -63.285156 67.71875 -62.171875 C 67.644531 -61.066406 67.3125 -59.921875 66.71875 -58.734375 C 64.0625 -52.523438 61.363281 -46.242188 58.625 -39.890625 C 55.894531 -33.535156 53.125 -27.179688 50.3125 -20.828125 C 49.425781 -18.910156 48.539062 -17.023438 47.65625 -15.171875 C 46.769531 -13.328125 45.8125 -11.445312 44.78125 -9.53125 C 42.257812 -5.25 38.742188 -2.296875 34.234375 -0.671875 C 29.734375 0.949219 25.117188 1.25 20.390625 0.21875 C 15.660156 -0.808594 11.816406 -3.320312 8.859375 -7.3125 C 6.941406 -9.820312 5.425781 -12.476562 4.3125 -15.28125 C 3.207031 -18.09375 2.285156 -20.976562 1.546875 -23.9375 C 0.367188 -28.519531 -0.398438 -33.175781 -0.765625 -37.90625 C -1.140625 -42.632812 -1.253906 -47.066406 -1.109375 -51.203125 C -1.253906 -60.359375 -0.699219 -69.148438 0.546875 -77.578125 C 1.804688 -86.003906 3.546875 -94.351562 5.765625 -102.625 C 5.910156 -103.507812 6.164062 -104.394531 6.53125 -105.28125 C 6.90625 -106.164062 7.238281 -107.054688 7.53125 -107.953125 C 8.269531 -110.015625 9.675781 -110.972656 11.75 -110.828125 C 12.1875 -110.828125 12.550781 -110.828125 12.84375 -110.828125 C 13.144531 -110.828125 13.445312 -110.828125 13.75 -110.828125 C 18.175781 -110.679688 20.796875 -110.203125 21.609375 -109.390625 C 22.421875 -108.578125 22.609375 -106.023438 22.171875 -101.734375 C 21.578125 -92.867188 20.984375 -84.078125 20.390625 -75.359375 C 19.796875 -66.640625 19.648438 -57.921875 19.953125 -49.203125 C 20.097656 -44.328125 20.242188 -39.488281 20.390625 -34.6875 C 20.535156 -29.882812 21.050781 -25.117188 21.9375 -20.390625 C 22.238281 -18.472656 22.679688 -16.625 23.265625 -14.84375 C 23.859375 -13.070312 24.597656 -11.375 25.484375 -9.75 C 27.410156 -6.351562 29.40625 -6.207031 31.46875 -9.3125 C 32.363281 -10.488281 33.140625 -11.742188 33.796875 -13.078125 C 34.460938 -14.410156 35.164062 -15.738281 35.90625 -17.0625 C 39.601562 -24.15625 43.257812 -31.285156 46.875 -38.453125 C 50.5 -45.617188 54.160156 -52.75 57.859375 -59.84375 C 58.003906 -60.289062 58.1875 -60.695312 58.40625 -61.0625 C 58.625 -61.4375 58.804688 -61.84375 58.953125 -62.28125 C 59.992188 -64.207031 60.84375 -65.28125 61.5 -65.5 C 62.164062 -65.71875 63.390625 -65.53125 65.171875 -64.9375 Z M 18.625 -122.578125 C 12.414062 -122.429688 9.238281 -124.867188 9.09375 -129.890625 C 8.9375 -132.703125 9.742188 -135.101562 11.515625 -137.09375 C 13.296875 -139.09375 15.441406 -140.09375 17.953125 -140.09375 C 21.054688 -140.09375 23.53125 -139.351562 25.375 -137.875 C 27.226562 -136.394531 28.15625 -134.320312 28.15625 -131.65625 C 28.15625 -125.75 24.976562 -122.722656 18.625 -122.578125 Z M 18.625 -122.578125 "/></g></g></g><g fill="#000000" fill-opacity="1"><g transform="translate(1079.114462, 800.209591)"><g><path d="M 41.890625 -31.03125 C 40.554688 -30.582031 39.148438 -30.0625 37.671875 -29.46875 C 36.203125 -28.882812 34.582031 -28.222656 32.8125 -27.484375 C 34.28125 -26.304688 35.566406 -25.269531 36.671875 -24.375 C 37.785156 -23.488281 38.785156 -22.601562 39.671875 -21.71875 C 44.109375 -17.875 47.800781 -13.625 50.75 -8.96875 C 53.707031 -4.320312 55.554688 0.957031 56.296875 6.875 C 56.742188 10.863281 56.523438 14.851562 55.640625 18.84375 C 54.753906 22.09375 53.535156 25.082031 51.984375 27.8125 C 50.429688 30.550781 47.953125 32.4375 44.546875 33.46875 C 40.554688 34.65625 36.640625 34.988281 32.796875 34.46875 C 28.960938 33.945312 25.421875 32.210938 22.171875 29.265625 C 20.097656 27.484375 18.359375 25.410156 16.953125 23.046875 C 15.546875 20.679688 14.253906 18.316406 13.078125 15.953125 C 10.710938 11.078125 8.863281 6.050781 7.53125 0.875 C 6.207031 -4.289062 5.101562 -9.53125 4.21875 -14.84375 C 2 -29.332031 1.035156 -43.78125 1.328125 -58.1875 C 1.617188 -72.59375 3.613281 -86.890625 7.3125 -101.078125 C 11.15625 -115.847656 17.289062 -129.585938 25.71875 -142.296875 C 28.375 -146.140625 31.328125 -149.757812 34.578125 -153.15625 C 37.828125 -156.5625 41.597656 -159.375 45.890625 -161.59375 C 48.984375 -163.21875 52.15625 -164.4375 55.40625 -165.25 C 58.664062 -166.0625 62.140625 -166.171875 65.828125 -165.578125 C 76.023438 -163.503906 82.601562 -157.296875 85.5625 -146.953125 C 86.59375 -143.265625 87 -139.535156 86.78125 -135.765625 C 86.5625 -131.992188 86.082031 -128.265625 85.34375 -124.578125 C 84.75 -121.765625 84.082031 -118.988281 83.34375 -116.25 C 82.601562 -113.519531 81.789062 -110.828125 80.90625 -108.171875 C 77.0625 -96.941406 71.257812 -87.664062 63.5 -80.34375 C 55.75 -73.03125 46.253906 -67.53125 35.015625 -63.84375 C 32.066406 -62.800781 30.332031 -61.945312 29.8125 -61.28125 C 29.289062 -60.625 29.03125 -58.742188 29.03125 -55.640625 C 29.03125 -52.390625 28.992188 -49.0625 28.921875 -45.65625 C 28.847656 -42.257812 28.960938 -38.710938 29.265625 -35.015625 C 35.023438 -36.492188 40.820312 -38.597656 46.65625 -41.328125 C 52.5 -44.066406 58.078125 -46.691406 63.390625 -49.203125 C 67.679688 -51.273438 71.671875 -53.898438 75.359375 -57.078125 C 79.054688 -60.253906 82.898438 -63.242188 86.890625 -66.046875 C 87.628906 -66.640625 88.40625 -67.082031 89.21875 -67.375 C 90.03125 -67.675781 90.804688 -67.234375 91.546875 -66.046875 C 92.285156 -65.015625 92.800781 -64.019531 93.09375 -63.0625 C 93.382812 -62.101562 92.867188 -61.101562 91.546875 -60.0625 C 87.554688 -56.96875 82.601562 -53.5 76.6875 -49.65625 C 70.78125 -45.8125 64.722656 -42.222656 58.515625 -38.890625 C 52.304688 -35.566406 46.765625 -32.945312 41.890625 -31.03125 Z M 32.359375 -99.078125 C 31.617188 -94.347656 30.988281 -89.65625 30.46875 -85 C 29.957031 -80.34375 29.628906 -75.503906 29.484375 -70.484375 C 30.367188 -70.628906 31.066406 -70.738281 31.578125 -70.8125 C 32.097656 -70.894531 32.507812 -71.007812 32.8125 -71.15625 C 38.570312 -73.664062 43.664062 -76.878906 48.09375 -80.796875 C 52.53125 -84.710938 56.300781 -89.476562 59.40625 -95.09375 C 61.625 -99.375 63.546875 -103.769531 65.171875 -108.28125 C 66.796875 -112.789062 68.269531 -117.332031 69.59375 -121.90625 C 72.257812 -131.363281 71.671875 -140.523438 67.828125 -149.390625 C 66.203125 -153.535156 63.984375 -155.828125 61.171875 -156.265625 C 58.367188 -156.710938 55.488281 -155.3125 52.53125 -152.0625 C 47.0625 -146.144531 43.070312 -139.125 40.5625 -131 C 38.9375 -125.820312 37.347656 -120.570312 35.796875 -115.25 C 34.242188 -109.9375 33.097656 -104.546875 32.359375 -99.078125 Z M 45 17.296875 C 45.289062 10.941406 44.101562 5.175781 41.4375 0 C 38.78125 -5.175781 35.085938 -9.90625 30.359375 -14.1875 C 30.515625 -8.570312 30.773438 -2.992188 31.140625 2.546875 C 31.515625 8.085938 32.289062 13.59375 33.46875 19.0625 C 34.0625 21.570312 34.800781 23.789062 35.6875 25.71875 C 36.570312 27.488281 37.71875 28.375 39.125 28.375 C 40.53125 28.375 41.75 27.488281 42.78125 25.71875 C 43.664062 24.53125 44.253906 23.195312 44.546875 21.71875 C 44.847656 20.238281 45 18.765625 45 17.296875 Z M 45 17.296875 "/></g></g></g><g fill="#000000" fill-opacity="1"><g transform="translate(1154.698516, 800.209591)"><g><path d="M 87.328125 -57.1875 C 87.328125 -55.851562 87.328125 -54.445312 87.328125 -52.96875 C 87.328125 -51.5 87.328125 -49.800781 87.328125 -47.875 C 90.578125 -49.945312 93.492188 -52.203125 96.078125 -54.640625 C 98.671875 -57.078125 101.148438 -59.476562 103.515625 -61.84375 C 104.992188 -63.320312 106.429688 -64.875 107.828125 -66.5 C 109.234375 -68.125 110.675781 -69.675781 112.15625 -71.15625 C 112.601562 -71.738281 113.15625 -72.289062 113.8125 -72.8125 C 114.476562 -73.332031 115.179688 -73.148438 115.921875 -72.265625 C 116.660156 -71.222656 117.507812 -70.148438 118.46875 -69.046875 C 119.4375 -67.941406 119.476562 -66.5 118.59375 -64.71875 C 118.144531 -63.976562 117.660156 -63.3125 117.140625 -62.71875 C 116.628906 -62.132812 116.078125 -61.472656 115.484375 -60.734375 C 111.785156 -56.003906 107.789062 -51.53125 103.5 -47.3125 C 99.21875 -43.101562 94.566406 -39.375 89.546875 -36.125 C 87.179688 -34.5 85.78125 -31.914062 85.34375 -28.375 C 84.15625 -20.25 82.5625 -12.304688 80.5625 -4.546875 C 78.570312 3.210938 75.878906 10.785156 72.484375 18.171875 C 70.554688 22.460938 68.375 26.566406 65.9375 30.484375 C 63.5 34.398438 60.726562 38.054688 57.625 41.453125 C 52.3125 47.066406 46.550781 50.757812 40.34375 52.53125 C 34.132812 54.300781 27.554688 54.300781 20.609375 52.53125 C 13.816406 50.90625 8.976562 47.25 6.09375 41.5625 C 3.207031 35.875 2.800781 29.1875 4.875 21.5 C 5.757812 18.101562 7.050781 14.890625 8.75 11.859375 C 10.445312 8.828125 12.332031 5.984375 14.40625 3.328125 C 18.394531 -1.398438 22.71875 -5.609375 27.375 -9.296875 C 32.03125 -12.992188 36.867188 -16.320312 41.890625 -19.28125 C 45.878906 -21.644531 50.019531 -23.9375 54.3125 -26.15625 C 56.675781 -27.488281 58.003906 -29.554688 58.296875 -32.359375 C 58.890625 -39.160156 59.476562 -46.03125 60.0625 -52.96875 C 60.65625 -59.914062 61.320312 -66.9375 62.0625 -74.03125 C 60.726562 -73.59375 59.875 -72.851562 59.5 -71.8125 C 59.132812 -70.78125 58.804688 -69.894531 58.515625 -69.15625 C 56.296875 -64.28125 53.96875 -59.476562 51.53125 -54.75 C 49.09375 -50.019531 46.472656 -45.515625 43.671875 -41.234375 C 40.265625 -35.910156 36.304688 -32.472656 31.796875 -30.921875 C 27.296875 -29.367188 22.382812 -29.179688 17.0625 -30.359375 C 11.15625 -31.546875 6.796875 -35.316406 3.984375 -41.671875 C 2.359375 -45.515625 1.175781 -49.503906 0.4375 -53.640625 C -0.300781 -57.773438 -0.671875 -61.910156 -0.671875 -66.046875 C -0.960938 -76.546875 -0.628906 -86.925781 0.328125 -97.1875 C 1.285156 -107.457031 2.726562 -117.691406 4.65625 -127.890625 C 5.394531 -132.035156 6.207031 -134.472656 7.09375 -135.203125 C 7.976562 -135.941406 10.195312 -136.460938 13.75 -136.765625 C 17 -137.203125 20.46875 -137.644531 24.15625 -138.09375 C 27.113281 -138.382812 28.367188 -136.90625 27.921875 -133.65625 C 27.628906 -131.59375 27.332031 -129.523438 27.03125 -127.453125 C 26.738281 -125.378906 26.445312 -123.3125 26.15625 -121.25 C 24.96875 -111.789062 24.078125 -102.332031 23.484375 -92.875 C 22.898438 -83.414062 22.832031 -73.882812 23.28125 -64.28125 C 23.28125 -61.46875 23.425781 -58.65625 23.71875 -55.84375 C 24.007812 -53.039062 24.597656 -50.3125 25.484375 -47.65625 C 27.109375 -43.375 29.179688 -43.003906 31.703125 -46.546875 C 32.734375 -47.878906 33.691406 -49.320312 34.578125 -50.875 C 35.460938 -52.425781 36.347656 -54.015625 37.234375 -55.640625 C 42.703125 -65.390625 47.320312 -75.507812 51.09375 -86 C 54.863281 -96.488281 58.742188 -106.984375 62.734375 -117.484375 C 63.023438 -118.367188 63.316406 -119.179688 63.609375 -119.921875 C 63.910156 -120.660156 64.132812 -121.472656 64.28125 -122.359375 C 65.3125 -127.378906 68.117188 -129.816406 72.703125 -129.671875 C 74.472656 -129.671875 76.207031 -129.816406 77.90625 -130.109375 C 79.613281 -130.410156 81.351562 -130.632812 83.125 -130.78125 C 85.78125 -131.21875 87.253906 -129.960938 87.546875 -127.015625 C 87.703125 -125.679688 87.851562 -124.421875 88 -123.234375 C 88.144531 -122.054688 88.21875 -120.875 88.21875 -119.6875 C 88.507812 -109.195312 88.617188 -98.742188 88.546875 -88.328125 C 88.472656 -77.910156 88.066406 -67.53125 87.328125 -57.1875 Z M 54.96875 -12.40625 C 54.96875 -12.40625 54.75 -12.925781 54.3125 -13.96875 C 50.164062 -11.457031 46.171875 -8.757812 42.328125 -5.875 C 38.492188 -2.988281 34.953125 0.296875 31.703125 3.984375 C 27.554688 8.566406 24.453125 13.890625 22.390625 19.953125 C 21.503906 22.460938 20.984375 24.972656 20.828125 27.484375 C 20.679688 29.992188 21.050781 32.503906 21.9375 35.015625 C 23.125 39.003906 25.117188 41.40625 27.921875 42.21875 C 30.734375 43.03125 33.546875 42.179688 36.359375 39.671875 C 37.242188 38.785156 38.09375 37.828125 38.90625 36.796875 C 39.71875 35.765625 40.414062 34.65625 41 33.46875 C 44.84375 26.375 47.796875 18.945312 49.859375 11.1875 C 51.929688 3.4375 53.632812 -4.425781 54.96875 -12.40625 Z M 54.96875 -12.40625 "/></g></g></g></svg>