<svg xmlns="http://www.w3.org/2000/svg" xmlns:xlink="http://www.w3.org/1999/xlink" zoomAndPan="magnify" viewBox="538 403 991 1166" preserveAspectRatio="xMidYMid meet" version="1.0"><defs><g/><clipPath id="41ce532c8f"><rect x="0" width="509" y="0" height="1007"/></clipPath><clipPath id="3ea1a0706d"><rect x="0" width="509" y="0" height="1007"/></clipPath><clipPath id="fb50b14a32"><rect x="0" width="1081" y="0" height="662"/></clipPath><clipPath id="ebb4555499"><path d="M 936.917969 631.550781 L 954.621094 631.550781 L 954.621094 649.621094 L 936.917969 649.621094 Z M 936.917969 631.550781 " clip-rule="nonzero"/></clipPath><clipPath id="e98cccac64"><path d="M 954.5625 637.980469 C 954.5625 643.605469 953.886719 645.105469 952.988281 646.152344 C 952.164062 647.277344 950.886719 648.253906 949.613281 648.855469 C 948.335938 649.378906 946.761719 649.679688 945.414062 649.605469 C 943.988281 649.527344 942.488281 649.078125 941.289062 648.328125 C 940.085938 647.578125 938.960938 646.453125 938.210938 645.253906 C 937.539062 644.054688 937.011719 642.554688 936.9375 641.203125 C 936.863281 639.777344 937.164062 638.203125 937.761719 636.929688 C 938.289062 635.652344 939.261719 634.378906 940.386719 633.554688 C 941.511719 632.652344 942.9375 632.054688 944.289062 631.753906 C 945.710938 631.527344 947.289062 631.605469 948.636719 632.054688 C 949.914062 632.429688 952.3125 634.230469 952.3125 634.230469 " clip-rule="nonzero"/></clipPath><clipPath id="6b2d671c8d"><path d="M 0.917969 0.550781 L 18.621094 0.550781 L 18.621094 18.621094 L 0.917969 18.621094 Z M 0.917969 0.550781 " clip-rule="nonzero"/></clipPath><clipPath id="f5fc59d3b2"><path d="M 18.5625 6.980469 C 18.5625 12.605469 17.886719 14.105469 16.988281 15.152344 C 16.164062 16.277344 14.886719 17.253906 13.613281 17.855469 C 12.335938 18.378906 10.761719 18.679688 9.414062 18.605469 C 7.988281 18.527344 6.488281 18.078125 5.289062 17.328125 C 4.085938 16.578125 2.960938 15.453125 2.210938 14.253906 C 1.539062 13.054688 1.011719 11.554688 0.9375 10.203125 C 0.863281 8.777344 1.164062 7.203125 1.761719 5.929688 C 2.289062 4.652344 3.261719 3.378906 4.386719 2.554688 C 5.511719 1.652344 6.9375 1.054688 8.289062 0.753906 C 9.710938 0.527344 11.289062 0.605469 12.636719 1.054688 C 13.914062 1.429688 16.3125 3.230469 16.3125 3.230469 " clip-rule="nonzero"/></clipPath><clipPath id="c4ba97da6d"><rect x="0" width="19" y="0" height="19"/></clipPath><clipPath id="605b5db808"><path d="M 934.207031 625.886719 L 959.125 625.886719 L 959.125 654 L 934.207031 654 Z M 934.207031 625.886719 " clip-rule="nonzero"/></clipPath><clipPath id="10c308bbe5"><path d="M 951.414062 634.304688 C 958.6875 642.027344 959.289062 644.429688 958.988281 646.378906 C 958.613281 648.328125 957.335938 650.652344 955.761719 651.929688 C 954.261719 653.128906 951.5625 653.878906 949.761719 653.953125 C 948.261719 653.953125 946.761719 653.429688 945.5625 652.753906 C 944.363281 652.078125 943.011719 651.253906 942.488281 649.753906 C 941.664062 647.578125 943.238281 639.777344 943.539062 639.855469 C 943.761719 639.855469 944.960938 648.929688 944.136719 649.230469 C 943.238281 649.527344 938.960938 641.277344 938.363281 641.355469 C 938.136719 641.429688 938.289062 642.253906 938.136719 642.253906 C 937.761719 642.402344 936.636719 641.054688 936.039062 640.230469 C 935.4375 639.480469 934.914062 638.730469 934.6875 637.679688 C 934.3125 636.179688 934.3125 633.402344 934.761719 631.902344 C 934.988281 630.855469 935.363281 630.179688 936.113281 629.355469 C 937.164062 628.230469 939.113281 626.652344 940.914062 626.203125 C 942.636719 625.679688 944.960938 625.828125 946.613281 626.503906 C 948.335938 627.179688 950.0625 628.753906 950.960938 630.253906 C 951.9375 631.828125 952.238281 634.378906 952.164062 635.878906 C 952.164062 637.003906 951.9375 637.753906 951.414062 638.730469 C 950.585938 640.078125 948.710938 642.027344 947.363281 642.855469 C 946.460938 643.453125 945.710938 643.679688 944.664062 643.753906 C 943.085938 643.902344 940.386719 643.378906 938.960938 642.777344 C 937.988281 642.328125 937.3125 641.730469 936.636719 640.980469 C 936.039062 640.304688 935.4375 639.628906 935.0625 638.578125 C 934.539062 637.152344 934.085938 634.605469 934.460938 632.878906 C 934.835938 631.078125 936.039062 629.128906 937.460938 627.929688 C 938.886719 626.804688 940.988281 625.980469 942.789062 625.902344 C 944.664062 625.753906 946.835938 626.578125 948.335938 627.480469 C 949.6875 628.230469 950.511719 629.203125 951.5625 630.703125 C 953.136719 632.953125 955.3125 636.777344 956.136719 640.078125 C 956.960938 643.230469 956.511719 649.980469 956.738281 649.980469 C 956.960938 649.980469 957.113281 640.230469 957.636719 640.078125 C 957.9375 640.078125 958.386719 641.277344 958.613281 642.027344 C 958.914062 643.230469 959.289062 644.878906 958.988281 646.378906 C 958.539062 648.179688 957.335938 650.652344 955.761719 651.929688 C 954.261719 653.128906 951.710938 654.027344 949.761719 653.953125 C 947.738281 653.878906 945.710938 652.753906 943.835938 651.480469 C 941.664062 649.980469 938.8125 647.203125 937.761719 645.179688 C 937.011719 643.753906 936.863281 642.328125 936.9375 640.980469 C 937.011719 639.554688 937.460938 638.054688 938.210938 636.855469 C 938.886719 635.652344 940.011719 634.453125 941.210938 633.777344 C 942.414062 633.027344 943.835938 632.429688 945.335938 632.429688 C 947.136719 632.429688 951.414062 634.304688 951.414062 634.304688 " clip-rule="nonzero"/></clipPath><clipPath id="37314b5d83"><path d="M 0.207031 0.886719 L 25.125 0.886719 L 25.125 29 L 0.207031 29 Z M 0.207031 0.886719 " clip-rule="nonzero"/></clipPath><clipPath id="4f39903ef9"><path d="M 17.414062 9.304688 C 24.6875 17.027344 25.289062 19.429688 24.988281 21.378906 C 24.613281 23.328125 23.335938 25.652344 21.761719 26.929688 C 20.261719 28.128906 17.5625 28.878906 15.761719 28.953125 C 14.261719 28.953125 12.761719 28.429688 11.5625 27.753906 C 10.363281 27.078125 9.011719 26.253906 8.488281 24.753906 C 7.664062 22.578125 9.238281 14.777344 9.539062 14.855469 C 9.761719 14.855469 10.960938 23.929688 10.136719 24.230469 C 9.238281 24.527344 4.960938 16.277344 4.363281 16.355469 C 4.136719 16.429688 4.289062 17.253906 4.136719 17.253906 C 3.761719 17.402344 2.636719 16.054688 2.039062 15.230469 C 1.4375 14.480469 0.914062 13.730469 0.6875 12.679688 C 0.3125 11.179688 0.3125 8.402344 0.761719 6.902344 C 0.988281 5.855469 1.363281 5.179688 2.113281 4.355469 C 3.164062 3.230469 5.113281 1.652344 6.914062 1.203125 C 8.636719 0.679688 10.960938 0.828125 12.613281 1.503906 C 14.335938 2.179688 16.0625 3.753906 16.960938 5.253906 C 17.9375 6.828125 18.238281 9.378906 18.164062 10.878906 C 18.164062 12.003906 17.9375 12.753906 17.414062 13.730469 C 16.585938 15.078125 14.710938 17.027344 13.363281 17.855469 C 12.460938 18.453125 11.710938 18.679688 10.664062 18.753906 C 9.085938 18.902344 6.386719 18.378906 4.960938 17.777344 C 3.988281 17.328125 3.3125 16.730469 2.636719 15.980469 C 2.039062 15.304688 1.4375 14.628906 1.0625 13.578125 C 0.539062 12.152344 0.0859375 9.605469 0.460938 7.878906 C 0.835938 6.078125 2.039062 4.128906 3.460938 2.929688 C 4.886719 1.804688 6.988281 0.980469 8.789062 0.902344 C 10.664062 0.753906 12.835938 1.578125 14.335938 2.480469 C 15.6875 3.230469 16.511719 4.203125 17.5625 5.703125 C 19.136719 7.953125 21.3125 11.777344 22.136719 15.078125 C 22.960938 18.230469 22.511719 24.980469 22.738281 24.980469 C 22.960938 24.980469 23.113281 15.230469 23.636719 15.078125 C 23.9375 15.078125 24.386719 16.277344 24.613281 17.027344 C 24.914062 18.230469 25.289062 19.878906 24.988281 21.378906 C 24.539062 23.179688 23.335938 25.652344 21.761719 26.929688 C 20.261719 28.128906 17.710938 29.027344 15.761719 28.953125 C 13.738281 28.878906 11.710938 27.753906 9.835938 26.480469 C 7.664062 24.980469 4.8125 22.203125 3.761719 20.179688 C 3.011719 18.753906 2.863281 17.328125 2.9375 15.980469 C 3.011719 14.554688 3.460938 13.054688 4.210938 11.855469 C 4.886719 10.652344 6.011719 9.453125 7.210938 8.777344 C 8.414062 8.027344 9.835938 7.429688 11.335938 7.429688 C 13.136719 7.429688 17.414062 9.304688 17.414062 9.304688 " clip-rule="nonzero"/></clipPath><clipPath id="de52f8be7a"><rect x="0" width="26" y="0" height="29"/></clipPath></defs><g transform="matrix(1, 0, 0, 1, 584, 324)"><g clip-path="url(#41ce532c8f)"><g fill="#ff5757" fill-opacity="1"><g transform="translate(0.902131, 786.511941)"><g><path d="M 420.75 -238 C 406.582031 -236.863281 392.273438 -235.867188 377.828125 -235.015625 C 363.378906 -234.171875 348.503906 -233.179688 333.203125 -232.046875 C 333.203125 -224.679688 334.191406 -218.304688 336.171875 -212.921875 C 338.160156 -207.535156 339.71875 -202.007812 340.84375 -196.34375 C 345.382812 -179.914062 349.351562 -163.203125 352.75 -146.203125 C 356.144531 -129.203125 357.84375 -112.203125 357.84375 -95.203125 C 358.976562 -43.628906 337.726562 -5.09375 294.09375 20.40625 C 235.164062 54.96875 172.269531 62.898438 105.40625 44.203125 C 85 38.535156 67.285156 27.625 52.265625 11.46875 C 37.253906 -4.675781 26.488281 -23.796875 19.96875 -45.890625 C 13.457031 -67.992188 12.1875 -90.097656 16.15625 -112.203125 C 21.25 -137.703125 31.019531 -159.09375 45.46875 -176.375 C 59.925781 -193.65625 78.769531 -207.679688 102 -218.453125 C 115.03125 -225.253906 128.769531 -230.632812 143.21875 -234.59375 C 157.675781 -238.5625 171.988281 -241.960938 186.15625 -244.796875 C 196.914062 -246.492188 203.003906 -248.476562 204.421875 -250.75 C 205.835938 -253.019531 204.847656 -258.96875 201.453125 -268.59375 C 192.378906 -296.925781 183.3125 -325.257812 174.25 -353.59375 C 165.1875 -381.925781 157.820312 -410.546875 152.15625 -439.453125 C 148.1875 -460.984375 146.054688 -482.515625 145.765625 -504.046875 C 145.484375 -525.578125 148.742188 -546.828125 155.546875 -567.796875 C 163.484375 -594.429688 176.09375 -616.53125 193.375 -634.09375 C 210.65625 -651.664062 233.179688 -663.285156 260.953125 -668.953125 C 289.285156 -674.617188 316.910156 -670.648438 343.828125 -657.046875 C 370.742188 -643.453125 390.148438 -623.335938 402.046875 -596.703125 C 408.847656 -581.398438 413.945312 -565.53125 417.34375 -549.09375 C 420.75 -532.664062 421.601562 -515.953125 419.90625 -498.953125 C 419.332031 -490.453125 418.050781 -485.207031 416.0625 -483.21875 C 414.082031 -481.238281 408.84375 -479.398438 400.34375 -477.703125 C 394.675781 -477.128906 388.867188 -476.414062 382.921875 -475.5625 C 376.972656 -474.71875 370.882812 -473.726562 364.65625 -472.59375 C 355.019531 -471.46875 349.066406 -476.003906 346.796875 -486.203125 C 344.535156 -496.398438 342.269531 -506.316406 340 -515.953125 C 337.726562 -525.585938 335.175781 -535.21875 332.34375 -544.84375 C 326.675781 -565.8125 317.613281 -586.210938 305.15625 -606.046875 C 301.75 -611.148438 297.921875 -615.828125 293.671875 -620.078125 C 289.421875 -624.328125 283.894531 -625.882812 277.09375 -624.75 C 270.300781 -624.1875 265.203125 -621.351562 261.796875 -616.25 C 258.398438 -611.144531 255.566406 -605.757812 253.296875 -600.09375 C 246.492188 -581.394531 242.664062 -562.550781 241.8125 -543.5625 C 240.96875 -524.582031 241.960938 -505.460938 244.796875 -486.203125 C 247.066406 -473.734375 250.039062 -461.40625 253.71875 -449.21875 C 257.40625 -437.039062 261.515625 -424.71875 266.046875 -412.25 C 274.546875 -390.144531 282.757812 -368.039062 290.6875 -345.9375 C 298.625 -323.84375 306.5625 -301.75 314.5 -279.65625 C 318.46875 -269.445312 321.722656 -263.492188 324.265625 -261.796875 C 326.816406 -260.097656 333.476562 -259.53125 344.25 -260.09375 C 366.351562 -261.800781 388.59375 -263.503906 410.96875 -265.203125 C 433.351562 -266.898438 455.597656 -270.300781 477.703125 -275.40625 C 480.535156 -275.96875 484.5 -276.816406 489.59375 -277.953125 C 496.96875 -278.515625 501.21875 -274.832031 502.34375 -266.90625 C 503.476562 -258.96875 500.644531 -254.148438 493.84375 -252.453125 C 481.382812 -249.617188 469.203125 -246.640625 457.296875 -243.515625 C 445.398438 -240.398438 433.21875 -238.5625 420.75 -238 Z M 201.453125 13.59375 C 218.453125 7.925781 230.914062 -1.703125 238.84375 -15.296875 C 246.78125 -28.898438 250.75 -47.882812 250.75 -72.25 C 249.050781 -93.21875 245.222656 -115.316406 239.265625 -138.546875 C 233.316406 -161.785156 226.945312 -185.019531 220.15625 -208.25 C 217.882812 -217.3125 211.929688 -220.710938 202.296875 -218.453125 C 188.703125 -216.179688 175.101562 -213.0625 161.5 -209.09375 C 147.894531 -205.132812 135.144531 -199.1875 123.25 -191.25 C 102.851562 -178.78125 88.6875 -160.929688 80.75 -137.703125 C 66.582031 -93.503906 73.097656 -52.703125 100.296875 -15.296875 C 112.203125 1.128906 127.078125 11.75 144.921875 16.5625 C 162.773438 21.382812 181.617188 20.394531 201.453125 13.59375 Z M 201.453125 13.59375 "/></g></g></g></g></g><g transform="matrix(1, 0, 0, 1, 596, 336)"><g clip-path="url(#3ea1a0706d)"><g fill="#000000" fill-opacity="1"><g transform="translate(0.90213, 786.511926)"><g><path d="M 420.75 -238 C 406.582031 -236.863281 392.273438 -235.867188 377.828125 -235.015625 C 363.378906 -234.171875 348.503906 -233.179688 333.203125 -232.046875 C 333.203125 -224.679688 334.191406 -218.304688 336.171875 -212.921875 C 338.160156 -207.535156 339.71875 -202.007812 340.84375 -196.34375 C 345.382812 -179.914062 349.351562 -163.203125 352.75 -146.203125 C 356.144531 -129.203125 357.84375 -112.203125 357.84375 -95.203125 C 358.976562 -43.628906 337.726562 -5.09375 294.09375 20.40625 C 235.164062 54.96875 172.269531 62.898438 105.40625 44.203125 C 85 38.535156 67.285156 27.625 52.265625 11.46875 C 37.253906 -4.675781 26.488281 -23.796875 19.96875 -45.890625 C 13.457031 -67.992188 12.1875 -90.097656 16.15625 -112.203125 C 21.25 -137.703125 31.019531 -159.09375 45.46875 -176.375 C 59.925781 -193.65625 78.769531 -207.679688 102 -218.453125 C 115.03125 -225.253906 128.769531 -230.632812 143.21875 -234.59375 C 157.675781 -238.5625 171.988281 -241.960938 186.15625 -244.796875 C 196.914062 -246.492188 203.003906 -248.476562 204.421875 -250.75 C 205.835938 -253.019531 204.847656 -258.96875 201.453125 -268.59375 C 192.378906 -296.925781 183.3125 -325.257812 174.25 -353.59375 C 165.1875 -381.925781 157.820312 -410.546875 152.15625 -439.453125 C 148.1875 -460.984375 146.054688 -482.515625 145.765625 -504.046875 C 145.484375 -525.578125 148.742188 -546.828125 155.546875 -567.796875 C 163.484375 -594.429688 176.09375 -616.53125 193.375 -634.09375 C 210.65625 -651.664062 233.179688 -663.285156 260.953125 -668.953125 C 289.285156 -674.617188 316.910156 -670.648438 343.828125 -657.046875 C 370.742188 -643.453125 390.148438 -623.335938 402.046875 -596.703125 C 408.847656 -581.398438 413.945312 -565.53125 417.34375 -549.09375 C 420.75 -532.664062 421.601562 -515.953125 419.90625 -498.953125 C 419.332031 -490.453125 418.050781 -485.207031 416.0625 -483.21875 C 414.082031 -481.238281 408.84375 -479.398438 400.34375 -477.703125 C 394.675781 -477.128906 388.867188 -476.414062 382.921875 -475.5625 C 376.972656 -474.71875 370.882812 -473.726562 364.65625 -472.59375 C 355.019531 -471.46875 349.066406 -476.003906 346.796875 -486.203125 C 344.535156 -496.398438 342.269531 -506.316406 340 -515.953125 C 337.726562 -525.585938 335.175781 -535.21875 332.34375 -544.84375 C 326.675781 -565.8125 317.613281 -586.210938 305.15625 -606.046875 C 301.75 -611.148438 297.921875 -615.828125 293.671875 -620.078125 C 289.421875 -624.328125 283.894531 -625.882812 277.09375 -624.75 C 270.300781 -624.1875 265.203125 -621.351562 261.796875 -616.25 C 258.398438 -611.144531 255.566406 -605.757812 253.296875 -600.09375 C 246.492188 -581.394531 242.664062 -562.550781 241.8125 -543.5625 C 240.96875 -524.582031 241.960938 -505.460938 244.796875 -486.203125 C 247.066406 -473.734375 250.039062 -461.40625 253.71875 -449.21875 C 257.40625 -437.039062 261.515625 -424.71875 266.046875 -412.25 C 274.546875 -390.144531 282.757812 -368.039062 290.6875 -345.9375 C 298.625 -323.84375 306.5625 -301.75 314.5 -279.65625 C 318.46875 -269.445312 321.722656 -263.492188 324.265625 -261.796875 C 326.816406 -260.097656 333.476562 -259.53125 344.25 -260.09375 C 366.351562 -261.800781 388.59375 -263.503906 410.96875 -265.203125 C 433.351562 -266.898438 455.597656 -270.300781 477.703125 -275.40625 C 480.535156 -275.96875 484.5 -276.816406 489.59375 -277.953125 C 496.96875 -278.515625 501.21875 -274.832031 502.34375 -266.90625 C 503.476562 -258.96875 500.644531 -254.148438 493.84375 -252.453125 C 481.382812 -249.617188 469.203125 -246.640625 457.296875 -243.515625 C 445.398438 -240.398438 433.21875 -238.5625 420.75 -238 Z M 201.453125 13.59375 C 218.453125 7.925781 230.914062 -1.703125 238.84375 -15.296875 C 246.78125 -28.898438 250.75 -47.882812 250.75 -72.25 C 249.050781 -93.21875 245.222656 -115.316406 239.265625 -138.546875 C 233.316406 -161.785156 226.945312 -185.019531 220.15625 -208.25 C 217.882812 -217.3125 211.929688 -220.710938 202.296875 -218.453125 C 188.703125 -216.179688 175.101562 -213.0625 161.5 -209.09375 C 147.894531 -205.132812 135.144531 -199.1875 123.25 -191.25 C 102.851562 -178.78125 88.6875 -160.929688 80.75 -137.703125 C 66.582031 -93.503906 73.097656 -52.703125 100.296875 -15.296875 C 112.203125 1.128906 127.078125 11.75 144.921875 16.5625 C 162.773438 21.382812 181.617188 20.394531 201.453125 13.59375 Z M 201.453125 13.59375 "/></g></g></g></g></g><g transform="matrix(1, 0, 0, 1, 214, 181)"><g clip-path="url(#fb50b14a32)"><g fill="#000000" fill-opacity="1"><g transform="translate(219.330329, 123.142346)"><g><path d="M 302.109375 381.125 C 298.765625 367.226562 295.546875 353.164062 292.453125 338.9375 C 289.359375 324.707031 286.0625 310.078125 282.5625 295.046875 C 275.226562 296.191406 269.039062 298.164062 264 300.96875 C 258.957031 303.78125 253.707031 306.191406 248.25 308.203125 C 232.632812 315.265625 216.640625 321.8125 200.265625 327.84375 C 183.898438 333.875 167.269531 338.210938 150.375 340.859375 C 99.289062 350.023438 57.675781 334.898438 25.53125 295.484375 C -18 242.296875 -35.679688 181.019531 -27.515625 111.65625 C -25.054688 90.488281 -16.96875 71.1875 -3.25 53.75 C 10.457031 36.3125 27.785156 22.628906 48.734375 12.703125 C 69.691406 2.785156 91.460938 -1.925781 114.046875 -1.4375 C 140.179688 -0.332031 162.960938 6.050781 182.390625 17.71875 C 201.816406 29.394531 218.691406 45.941406 233.015625 67.359375 C 241.804688 79.253906 249.296875 92.070312 255.484375 105.8125 C 261.679688 119.5625 267.296875 133.25 272.328125 146.875 C 275.691406 157.320312 278.609375 163.070312 281.078125 164.125 C 283.546875 165.175781 289.300781 163.257812 298.34375 158.375 C 325.101562 144.957031 351.859375 131.535156 378.609375 118.109375 C 405.359375 104.679688 432.648438 92.90625 460.484375 82.78125 C 481.273438 75.476562 502.347656 70.007812 523.703125 66.375 C 545.066406 62.738281 566.703125 62.664062 588.609375 66.15625 C 616.304688 69.894531 640.234375 78.988281 660.390625 93.4375 C 680.546875 107.882812 695.601562 128.460938 705.5625 155.171875 C 715.601562 182.441406 715.957031 210.515625 706.625 239.390625 C 697.300781 268.265625 680.332031 290.691406 655.71875 306.671875 C 641.570312 315.816406 626.597656 323.359375 610.796875 329.296875 C 594.992188 335.234375 578.507812 338.6875 561.34375 339.65625 C 552.8125 340.40625 547.40625 339.945312 545.125 338.28125 C 542.851562 336.625 540.203125 331.707031 537.171875 323.53125 C 535.734375 317.96875 534.125 312.296875 532.34375 306.515625 C 530.570312 300.734375 528.640625 294.835938 526.546875 288.828125 C 523.921875 279.429688 527.503906 272.8125 537.296875 268.96875 C 547.078125 265.125 556.578125 261.320312 565.796875 257.5625 C 575.023438 253.8125 584.203125 249.78125 593.328125 245.46875 C 613.285156 236.570312 632.148438 224.382812 649.921875 208.90625 C 654.460938 204.726562 658.507812 200.195312 662.0625 195.3125 C 665.625 190.425781 666.316406 184.691406 664.140625 178.109375 C 662.515625 171.441406 658.898438 166.8125 653.296875 164.21875 C 647.703125 161.625 641.914062 159.644531 635.9375 158.28125 C 616.289062 154.4375 596.96875 153.570312 577.96875 155.6875 C 558.96875 157.800781 540.113281 161.769531 521.40625 167.59375 C 509.375 171.78125 497.585938 176.65625 486.046875 182.21875 C 474.503906 187.78125 462.890625 193.78125 451.203125 200.21875 C 430.554688 212.113281 409.867188 223.726562 389.140625 235.0625 C 368.410156 246.394531 347.679688 257.722656 326.953125 269.046875 C 317.441406 274.566406 312.035156 278.726562 310.734375 281.53125 C 309.441406 284.332031 309.914062 291.035156 312.15625 301.640625 C 317.289062 323.347656 322.445312 345.195312 327.625 367.1875 C 332.800781 389.175781 339.640625 410.75 348.140625 431.90625 C 349.148438 434.632812 350.613281 438.445312 352.53125 443.34375 C 354.238281 450.570312 351.242188 455.375 343.546875 457.75 C 335.835938 460.101562 330.601562 458.03125 327.84375 451.53125 C 323.09375 439.582031 318.238281 427.9375 313.28125 416.59375 C 308.332031 405.25 304.609375 393.425781 302.109375 381.125 Z M 17.859375 202.34375 C 26.148438 218.363281 37.671875 229.253906 52.421875 235.015625 C 67.171875 240.785156 86.65625 241.773438 110.875 237.984375 C 131.445312 233.023438 152.8125 225.773438 174.96875 216.234375 C 197.132812 206.703125 219.238281 196.753906 241.28125 186.390625 C 249.945312 182.722656 252.398438 176.273438 248.640625 167.046875 C 244.273438 153.890625 239.0625 140.859375 233 127.953125 C 226.9375 115.054688 219.035156 103.304688 209.296875 92.703125 C 193.734375 74.378906 173.785156 63.082031 149.453125 58.8125 C 103.304688 51.613281 63.765625 64.441406 30.828125 97.296875 C 16.347656 111.691406 8.101562 128.132812 6.09375 146.625 C 4.09375 165.125 8.015625 183.695312 17.859375 202.34375 Z M 17.859375 202.34375 "/></g></g></g></g></g><g clip-path="url(#ebb4555499)"><g clip-path="url(#e98cccac64)"><g transform="matrix(1, 0, 0, 1, 936, 631)"><g clip-path="url(#c4ba97da6d)"><g clip-path="url(#6b2d671c8d)"><g clip-path="url(#f5fc59d3b2)"><rect x="-1266" width="2160" fill="#ff5757" height="2159.999904" y="-960.999985" fill-opacity="1"/></g></g></g></g></g></g><g clip-path="url(#605b5db808)"><g clip-path="url(#10c308bbe5)"><g transform="matrix(1, 0, 0, 1, 934, 625)"><g clip-path="url(#de52f8be7a)"><g clip-path="url(#37314b5d83)"><g clip-path="url(#4f39903ef9)"><rect x="-1264" width="2160" fill="#000000" height="2159.999904" y="-954.999985" fill-opacity="1"/></g></g></g></g></g></g></svg>