<svg xmlns="http://www.w3.org/2000/svg" xmlns:xlink="http://www.w3.org/1999/xlink" width="2000" zoomAndPan="magnify" viewBox="0 0 1500 1499.999933" height="2000" preserveAspectRatio="xMidYMid meet" version="1.0"><defs><g/><clipPath id="e59327f063"><rect x="0" width="234" y="0" height="463"/></clipPath><clipPath id="1fe58d03d6"><path d="M 176 71 L 410 71 L 410 534.28125 L 176 534.28125 Z M 176 71 " clip-rule="nonzero"/></clipPath><clipPath id="01257c987d"><rect x="0" width="234" y="0" height="464"/></clipPath><clipPath id="6e3c82298f"><path d="M 0.480469 0.761719 L 496.320312 0.761719 L 496.320312 305 L 0.480469 305 Z M 0.480469 0.761719 " clip-rule="nonzero"/></clipPath><clipPath id="debcd7e3ef"><rect x="0" width="497" y="0" height="305"/></clipPath><clipPath id="41cdbfe5b2"><path d="M 332.371094 207.457031 L 340.5 207.457031 L 340.5 215.757812 L 332.371094 215.757812 Z M 332.371094 207.457031 " clip-rule="nonzero"/></clipPath><clipPath id="064a851dff"><path d="M 340.472656 210.410156 C 340.472656 212.992188 340.164062 213.683594 339.75 214.164062 C 339.371094 214.679688 338.785156 215.128906 338.199219 215.402344 C 337.613281 215.644531 336.890625 215.78125 336.273438 215.75 C 335.617188 215.714844 334.929688 215.507812 334.378906 215.164062 C 333.828125 214.820312 333.308594 214.300781 332.964844 213.75 C 332.65625 213.199219 332.414062 212.511719 332.378906 211.890625 C 332.34375 211.238281 332.484375 210.515625 332.757812 209.929688 C 333 209.34375 333.449219 208.757812 333.964844 208.378906 C 334.480469 207.964844 335.136719 207.691406 335.753906 207.550781 C 336.410156 207.449219 337.132812 207.484375 337.753906 207.691406 C 338.335938 207.863281 339.441406 208.6875 339.441406 208.6875 " clip-rule="nonzero"/></clipPath><clipPath id="c50880d811"><path d="M 0.371094 0.457031 L 8.5 0.457031 L 8.5 8.757812 L 0.371094 8.757812 Z M 0.371094 0.457031 " clip-rule="nonzero"/></clipPath><clipPath id="fa34679fb8"><path d="M 8.472656 3.410156 C 8.472656 5.992188 8.164062 6.683594 7.75 7.164062 C 7.371094 7.679688 6.785156 8.128906 6.199219 8.402344 C 5.613281 8.644531 4.890625 8.78125 4.273438 8.75 C 3.617188 8.714844 2.929688 8.507812 2.378906 8.164062 C 1.828125 7.820312 1.308594 7.300781 0.964844 6.75 C 0.65625 6.199219 0.414062 5.511719 0.378906 4.890625 C 0.34375 4.238281 0.484375 3.515625 0.757812 2.929688 C 1 2.34375 1.449219 1.757812 1.964844 1.378906 C 2.480469 0.964844 3.136719 0.691406 3.753906 0.550781 C 4.410156 0.449219 5.132812 0.484375 5.753906 0.691406 C 6.335938 0.863281 7.441406 1.6875 7.441406 1.6875 " clip-rule="nonzero"/></clipPath><clipPath id="3ccddc0f7e"><rect x="0" width="9" y="0" height="9"/></clipPath><clipPath id="d08b3ceb8d"><path d="M 331.125 204.855469 L 342.566406 204.855469 L 342.566406 217.777344 L 331.125 217.777344 Z M 331.125 204.855469 " clip-rule="nonzero"/></clipPath><clipPath id="a99b4ebd33"><path d="M 339.027344 208.722656 C 342.367188 212.269531 342.644531 213.371094 342.503906 214.265625 C 342.332031 215.164062 341.746094 216.230469 341.023438 216.816406 C 340.335938 217.367188 339.09375 217.710938 338.269531 217.746094 C 337.582031 217.746094 336.890625 217.503906 336.339844 217.195312 C 335.789062 216.882812 335.167969 216.507812 334.929688 215.816406 C 334.550781 214.820312 335.273438 211.238281 335.410156 211.269531 C 335.515625 211.269531 336.066406 215.4375 335.6875 215.574219 C 335.273438 215.714844 333.308594 211.925781 333.035156 211.960938 C 332.929688 211.996094 333 212.375 332.929688 212.375 C 332.757812 212.441406 332.242188 211.824219 331.96875 211.445312 C 331.691406 211.097656 331.449219 210.753906 331.347656 210.273438 C 331.175781 209.582031 331.175781 208.308594 331.382812 207.621094 C 331.484375 207.140625 331.65625 206.828125 332 206.449219 C 332.484375 205.933594 333.378906 205.210938 334.207031 205.003906 C 334.996094 204.761719 336.066406 204.832031 336.824219 205.140625 C 337.613281 205.453125 338.40625 206.175781 338.820312 206.863281 C 339.269531 207.585938 339.40625 208.757812 339.371094 209.445312 C 339.371094 209.960938 339.269531 210.308594 339.027344 210.753906 C 338.648438 211.375 337.785156 212.269531 337.167969 212.648438 C 336.753906 212.925781 336.410156 213.027344 335.925781 213.0625 C 335.203125 213.132812 333.964844 212.890625 333.308594 212.613281 C 332.863281 212.40625 332.550781 212.132812 332.242188 211.789062 C 331.96875 211.476562 331.691406 211.167969 331.519531 210.6875 C 331.277344 210.03125 331.070312 208.859375 331.242188 208.070312 C 331.414062 207.242188 331.96875 206.347656 332.621094 205.796875 C 333.277344 205.277344 334.238281 204.898438 335.066406 204.867188 C 335.925781 204.796875 336.925781 205.175781 337.613281 205.589844 C 338.234375 205.933594 338.613281 206.382812 339.09375 207.070312 C 339.820312 208.101562 340.816406 209.859375 341.195312 211.375 C 341.574219 212.820312 341.367188 215.921875 341.472656 215.921875 C 341.574219 215.921875 341.644531 211.445312 341.886719 211.375 C 342.023438 211.375 342.230469 211.925781 342.332031 212.269531 C 342.46875 212.820312 342.644531 213.578125 342.503906 214.265625 C 342.296875 215.09375 341.746094 216.230469 341.023438 216.816406 C 340.335938 217.367188 339.164062 217.78125 338.269531 217.746094 C 337.339844 217.710938 336.410156 217.195312 335.546875 216.609375 C 334.550781 215.921875 333.242188 214.644531 332.757812 213.714844 C 332.414062 213.0625 332.34375 212.40625 332.378906 211.789062 C 332.414062 211.132812 332.621094 210.445312 332.964844 209.894531 C 333.277344 209.34375 333.792969 208.792969 334.34375 208.480469 C 334.894531 208.136719 335.546875 207.863281 336.238281 207.863281 C 337.0625 207.863281 339.027344 208.722656 339.027344 208.722656 " clip-rule="nonzero"/></clipPath><clipPath id="5d97473266"><path d="M 0.125 0.855469 L 11.566406 0.855469 L 11.566406 13.777344 L 0.125 13.777344 Z M 0.125 0.855469 " clip-rule="nonzero"/></clipPath><clipPath id="c4e88435b8"><path d="M 8.027344 4.722656 C 11.367188 8.269531 11.644531 9.371094 11.503906 10.265625 C 11.332031 11.164062 10.746094 12.230469 10.023438 12.816406 C 9.335938 13.367188 8.09375 13.710938 7.269531 13.746094 C 6.582031 13.746094 5.890625 13.503906 5.339844 13.195312 C 4.789062 12.882812 4.167969 12.507812 3.929688 11.816406 C 3.550781 10.820312 4.273438 7.238281 4.410156 7.269531 C 4.515625 7.269531 5.066406 11.4375 4.6875 11.574219 C 4.273438 11.714844 2.308594 7.925781 2.035156 7.960938 C 1.929688 7.996094 2 8.375 1.929688 8.375 C 1.757812 8.441406 1.242188 7.824219 0.96875 7.445312 C 0.691406 7.097656 0.449219 6.753906 0.347656 6.273438 C 0.175781 5.582031 0.175781 4.308594 0.382812 3.621094 C 0.484375 3.140625 0.65625 2.828125 1 2.449219 C 1.484375 1.933594 2.378906 1.210938 3.207031 1.003906 C 3.996094 0.761719 5.066406 0.832031 5.824219 1.140625 C 6.613281 1.453125 7.40625 2.175781 7.820312 2.863281 C 8.269531 3.585938 8.40625 4.757812 8.371094 5.445312 C 8.371094 5.960938 8.269531 6.308594 8.027344 6.753906 C 7.648438 7.375 6.785156 8.269531 6.167969 8.648438 C 5.753906 8.925781 5.410156 9.027344 4.925781 9.0625 C 4.203125 9.132812 2.964844 8.890625 2.308594 8.613281 C 1.863281 8.40625 1.550781 8.132812 1.242188 7.789062 C 0.96875 7.476562 0.691406 7.167969 0.519531 6.6875 C 0.277344 6.03125 0.0703125 4.859375 0.242188 4.070312 C 0.414062 3.242188 0.96875 2.347656 1.621094 1.796875 C 2.277344 1.277344 3.238281 0.898438 4.066406 0.867188 C 4.925781 0.796875 5.925781 1.175781 6.613281 1.589844 C 7.234375 1.933594 7.613281 2.382812 8.09375 3.070312 C 8.820312 4.101562 9.816406 5.859375 10.195312 7.375 C 10.574219 8.820312 10.367188 11.921875 10.472656 11.921875 C 10.574219 11.921875 10.644531 7.445312 10.886719 7.375 C 11.023438 7.375 11.230469 7.925781 11.332031 8.269531 C 11.46875 8.820312 11.644531 9.578125 11.503906 10.265625 C 11.296875 11.09375 10.746094 12.230469 10.023438 12.816406 C 9.335938 13.367188 8.164062 13.78125 7.269531 13.746094 C 6.339844 13.710938 5.410156 13.195312 4.546875 12.609375 C 3.550781 11.921875 2.242188 10.644531 1.757812 9.714844 C 1.414062 9.0625 1.34375 8.40625 1.378906 7.789062 C 1.414062 7.132812 1.621094 6.445312 1.964844 5.894531 C 2.277344 5.34375 2.792969 4.792969 3.34375 4.480469 C 3.894531 4.136719 4.546875 3.863281 5.238281 3.863281 C 6.0625 3.863281 8.027344 4.722656 8.027344 4.722656 " clip-rule="nonzero"/></clipPath><clipPath id="bd6d2c214e"><rect x="0" width="12" y="0" height="14"/></clipPath><clipPath id="2f08bd6f16"><rect x="0" width="497" y="0" height="535"/></clipPath><clipPath id="4e97015a68"><rect x="0" width="633" y="0" height="223"/></clipPath></defs><g transform="matrix(1, 0, 0, 1, 216, 371)"><g clip-path="url(#2f08bd6f16)"><g transform="matrix(1, 0, 0, 1, 170, 66)"><g clip-path="url(#e59327f063)"><g fill="#ff5757" fill-opacity="1"><g transform="translate(0.734922, 361.384701)"><g><path d="M 193.203125 -109.28125 C 186.691406 -108.757812 180.117188 -108.300781 173.484375 -107.90625 C 166.847656 -107.519531 160.019531 -107.066406 153 -106.546875 C 153 -103.171875 153.453125 -100.242188 154.359375 -97.765625 C 155.273438 -95.296875 155.992188 -92.757812 156.515625 -90.15625 C 158.585938 -82.613281 160.40625 -74.9375 161.96875 -67.125 C 163.53125 -59.320312 164.3125 -51.519531 164.3125 -43.71875 C 164.832031 -20.039062 155.078125 -2.347656 135.046875 9.359375 C 107.984375 25.234375 79.097656 28.878906 48.390625 20.296875 C 39.023438 17.691406 30.894531 12.679688 24 5.265625 C 17.101562 -2.148438 12.160156 -10.929688 9.171875 -21.078125 C 6.179688 -31.222656 5.597656 -41.367188 7.421875 -51.515625 C 9.753906 -63.222656 14.238281 -73.046875 20.875 -80.984375 C 27.507812 -88.921875 36.160156 -95.363281 46.828125 -100.3125 C 52.816406 -103.425781 59.128906 -105.894531 65.765625 -107.71875 C 72.398438 -109.539062 78.96875 -111.101562 85.46875 -112.40625 C 90.414062 -113.1875 93.210938 -114.097656 93.859375 -115.140625 C 94.515625 -116.179688 94.0625 -118.910156 92.5 -123.328125 C 88.332031 -136.335938 84.164062 -149.347656 80 -162.359375 C 75.84375 -175.367188 72.460938 -188.507812 69.859375 -201.78125 C 68.035156 -211.664062 67.054688 -221.550781 66.921875 -231.4375 C 66.796875 -241.332031 68.296875 -251.09375 71.421875 -260.71875 C 75.066406 -272.945312 80.859375 -283.09375 88.796875 -291.15625 C 96.734375 -299.226562 107.078125 -304.5625 119.828125 -307.15625 C 132.835938 -309.757812 145.519531 -307.9375 157.875 -301.6875 C 170.238281 -295.445312 179.148438 -286.210938 184.609375 -273.984375 C 187.734375 -266.960938 190.078125 -259.675781 191.640625 -252.125 C 193.203125 -244.582031 193.59375 -236.910156 192.8125 -229.109375 C 192.550781 -225.203125 191.960938 -222.789062 191.046875 -221.875 C 190.140625 -220.96875 187.734375 -220.125 183.828125 -219.34375 C 181.222656 -219.082031 178.554688 -218.753906 175.828125 -218.359375 C 173.097656 -217.972656 170.300781 -217.519531 167.4375 -217 C 163.007812 -216.476562 160.273438 -218.5625 159.234375 -223.25 C 158.203125 -227.9375 157.164062 -232.488281 156.125 -236.90625 C 155.082031 -241.332031 153.910156 -245.757812 152.609375 -250.1875 C 150.003906 -259.8125 145.835938 -269.175781 140.109375 -278.28125 C 138.554688 -280.625 136.800781 -282.769531 134.84375 -284.71875 C 132.894531 -286.675781 130.359375 -287.394531 127.234375 -286.875 C 124.109375 -286.613281 121.765625 -285.3125 120.203125 -282.96875 C 118.648438 -280.625 117.351562 -278.148438 116.3125 -275.546875 C 113.1875 -266.960938 111.425781 -258.3125 111.03125 -249.59375 C 110.644531 -240.875 111.101562 -232.09375 112.40625 -223.25 C 113.445312 -217.519531 114.8125 -211.859375 116.5 -206.265625 C 118.195312 -200.671875 120.082031 -195.015625 122.15625 -189.296875 C 126.0625 -179.148438 129.835938 -169 133.484375 -158.84375 C 137.128906 -148.695312 140.769531 -138.550781 144.40625 -128.40625 C 146.226562 -123.71875 147.722656 -120.984375 148.890625 -120.203125 C 150.066406 -119.429688 153.125 -119.175781 158.0625 -119.4375 C 168.21875 -120.21875 178.429688 -120.992188 188.703125 -121.765625 C 198.984375 -122.546875 209.195312 -124.109375 219.34375 -126.453125 C 220.644531 -126.710938 222.46875 -127.101562 224.8125 -127.625 C 228.195312 -127.882812 230.148438 -126.191406 230.671875 -122.546875 C 231.191406 -118.910156 229.890625 -116.703125 226.765625 -115.921875 C 221.035156 -114.617188 215.4375 -113.25 209.96875 -111.8125 C 204.507812 -110.382812 198.921875 -109.539062 193.203125 -109.28125 Z M 92.5 6.25 C 100.300781 3.644531 106.023438 -0.773438 109.671875 -7.015625 C 113.316406 -13.265625 115.140625 -21.984375 115.140625 -33.171875 C 114.359375 -42.796875 112.597656 -52.941406 109.859375 -63.609375 C 107.128906 -74.285156 104.207031 -84.957031 101.09375 -95.625 C 100.050781 -99.789062 97.316406 -101.351562 92.890625 -100.3125 C 86.648438 -99.269531 80.40625 -97.835938 74.15625 -96.015625 C 67.914062 -94.191406 62.0625 -91.457031 56.59375 -87.8125 C 47.226562 -82.09375 40.722656 -73.898438 37.078125 -63.234375 C 30.578125 -42.929688 33.570312 -24.195312 46.0625 -7.03125 C 51.519531 0.519531 58.347656 5.398438 66.546875 7.609375 C 74.742188 9.816406 83.394531 9.363281 92.5 6.25 Z M 92.5 6.25 "/></g></g></g></g></g><g clip-path="url(#1fe58d03d6)"><g transform="matrix(1, 0, 0, 1, 176, 71)"><g clip-path="url(#01257c987d)"><g fill="#000000" fill-opacity="1"><g transform="translate(0.245019, 361.894741)"><g><path d="M 193.203125 -109.28125 C 186.691406 -108.757812 180.117188 -108.300781 173.484375 -107.90625 C 166.847656 -107.519531 160.019531 -107.066406 153 -106.546875 C 153 -103.171875 153.453125 -100.242188 154.359375 -97.765625 C 155.273438 -95.296875 155.992188 -92.757812 156.515625 -90.15625 C 158.585938 -82.613281 160.40625 -74.9375 161.96875 -67.125 C 163.53125 -59.320312 164.3125 -51.519531 164.3125 -43.71875 C 164.832031 -20.039062 155.078125 -2.347656 135.046875 9.359375 C 107.984375 25.234375 79.097656 28.878906 48.390625 20.296875 C 39.023438 17.691406 30.894531 12.679688 24 5.265625 C 17.101562 -2.148438 12.160156 -10.929688 9.171875 -21.078125 C 6.179688 -31.222656 5.597656 -41.367188 7.421875 -51.515625 C 9.753906 -63.222656 14.238281 -73.046875 20.875 -80.984375 C 27.507812 -88.921875 36.160156 -95.363281 46.828125 -100.3125 C 52.816406 -103.425781 59.128906 -105.894531 65.765625 -107.71875 C 72.398438 -109.539062 78.96875 -111.101562 85.46875 -112.40625 C 90.414062 -113.1875 93.210938 -114.097656 93.859375 -115.140625 C 94.515625 -116.179688 94.0625 -118.910156 92.5 -123.328125 C 88.332031 -136.335938 84.164062 -149.347656 80 -162.359375 C 75.84375 -175.367188 72.460938 -188.507812 69.859375 -201.78125 C 68.035156 -211.664062 67.054688 -221.550781 66.921875 -231.4375 C 66.796875 -241.332031 68.296875 -251.09375 71.421875 -260.71875 C 75.066406 -272.945312 80.859375 -283.09375 88.796875 -291.15625 C 96.734375 -299.226562 107.078125 -304.5625 119.828125 -307.15625 C 132.835938 -309.757812 145.519531 -307.9375 157.875 -301.6875 C 170.238281 -295.445312 179.148438 -286.210938 184.609375 -273.984375 C 187.734375 -266.960938 190.078125 -259.675781 191.640625 -252.125 C 193.203125 -244.582031 193.59375 -236.910156 192.8125 -229.109375 C 192.550781 -225.203125 191.960938 -222.789062 191.046875 -221.875 C 190.140625 -220.96875 187.734375 -220.125 183.828125 -219.34375 C 181.222656 -219.082031 178.554688 -218.753906 175.828125 -218.359375 C 173.097656 -217.972656 170.300781 -217.519531 167.4375 -217 C 163.007812 -216.476562 160.273438 -218.5625 159.234375 -223.25 C 158.203125 -227.9375 157.164062 -232.488281 156.125 -236.90625 C 155.082031 -241.332031 153.910156 -245.757812 152.609375 -250.1875 C 150.003906 -259.8125 145.835938 -269.175781 140.109375 -278.28125 C 138.554688 -280.625 136.800781 -282.769531 134.84375 -284.71875 C 132.894531 -286.675781 130.359375 -287.394531 127.234375 -286.875 C 124.109375 -286.613281 121.765625 -285.3125 120.203125 -282.96875 C 118.648438 -280.625 117.351562 -278.148438 116.3125 -275.546875 C 113.1875 -266.960938 111.425781 -258.3125 111.03125 -249.59375 C 110.644531 -240.875 111.101562 -232.09375 112.40625 -223.25 C 113.445312 -217.519531 114.8125 -211.859375 116.5 -206.265625 C 118.195312 -200.671875 120.082031 -195.015625 122.15625 -189.296875 C 126.0625 -179.148438 129.835938 -169 133.484375 -158.84375 C 137.128906 -148.695312 140.769531 -138.550781 144.40625 -128.40625 C 146.226562 -123.71875 147.722656 -120.984375 148.890625 -120.203125 C 150.066406 -119.429688 153.125 -119.175781 158.0625 -119.4375 C 168.21875 -120.21875 178.429688 -120.992188 188.703125 -121.765625 C 198.984375 -122.546875 209.195312 -124.109375 219.34375 -126.453125 C 220.644531 -126.710938 222.46875 -127.101562 224.8125 -127.625 C 228.195312 -127.882812 230.148438 -126.191406 230.671875 -122.546875 C 231.191406 -118.910156 229.890625 -116.703125 226.765625 -115.921875 C 221.035156 -114.617188 215.4375 -113.25 209.96875 -111.8125 C 204.507812 -110.382812 198.921875 -109.539062 193.203125 -109.28125 Z M 92.5 6.25 C 100.300781 3.644531 106.023438 -0.773438 109.671875 -7.015625 C 113.316406 -13.265625 115.140625 -21.984375 115.140625 -33.171875 C 114.359375 -42.796875 112.597656 -52.941406 109.859375 -63.609375 C 107.128906 -74.285156 104.207031 -84.957031 101.09375 -95.625 C 100.050781 -99.789062 97.316406 -101.351562 92.890625 -100.3125 C 86.648438 -99.269531 80.40625 -97.835938 74.15625 -96.015625 C 67.914062 -94.191406 62.0625 -91.457031 56.59375 -87.8125 C 47.226562 -82.09375 40.722656 -73.898438 37.078125 -63.234375 C 30.578125 -42.929688 33.570312 -24.195312 46.0625 -7.03125 C 51.519531 0.519531 58.347656 5.398438 66.546875 7.609375 C 74.742188 9.816406 83.394531 9.363281 92.5 6.25 Z M 92.5 6.25 "/></g></g></g></g></g></g><g clip-path="url(#6e3c82298f)"><g transform="matrix(1, 0, 0, 1, 0, 0.000000000000113687)"><g clip-path="url(#debcd7e3ef)"><g fill="#000000" fill-opacity="1"><g transform="translate(101.137348, 57.121751)"><g><path d="M 138.71875 175 C 137.1875 168.613281 135.707031 162.15625 134.28125 155.625 C 132.863281 149.09375 131.347656 142.375 129.734375 135.46875 C 126.367188 135.988281 123.53125 136.894531 121.21875 138.1875 C 118.90625 139.476562 116.492188 140.585938 113.984375 141.515625 C 106.816406 144.765625 99.472656 147.769531 91.953125 150.53125 C 84.441406 153.289062 76.804688 155.28125 69.046875 156.5 C 45.597656 160.707031 26.488281 153.765625 11.71875 135.671875 C -8.257812 111.265625 -16.378906 83.125 -12.640625 51.25 C -11.515625 41.550781 -7.800781 32.695312 -1.5 24.6875 C 4.789062 16.675781 12.75 10.390625 22.375 5.828125 C 32 1.273438 41.992188 -0.890625 52.359375 -0.671875 C 64.359375 -0.148438 74.816406 2.785156 83.734375 8.140625 C 92.660156 13.492188 100.414062 21.09375 107 30.9375 C 111.019531 36.394531 114.453125 42.273438 117.296875 48.578125 C 120.148438 54.890625 122.734375 61.179688 125.046875 67.453125 C 126.585938 72.242188 127.925781 74.878906 129.0625 75.359375 C 130.195312 75.847656 132.835938 74.96875 136.984375 72.71875 C 149.273438 66.5625 161.5625 60.398438 173.84375 54.234375 C 186.125 48.078125 198.65625 42.664062 211.4375 38 C 220.988281 34.65625 230.664062 32.144531 240.46875 30.46875 C 250.28125 28.800781 260.210938 28.769531 270.265625 30.375 C 282.992188 32.09375 293.984375 36.269531 303.234375 42.90625 C 312.484375 49.539062 319.394531 58.988281 323.96875 71.25 C 328.570312 83.78125 328.734375 96.671875 324.453125 109.921875 C 320.179688 123.179688 312.390625 133.476562 301.078125 140.8125 C 294.578125 145.019531 287.703125 148.484375 280.453125 151.203125 C 273.203125 153.921875 265.632812 155.503906 257.75 155.953125 C 253.820312 156.296875 251.335938 156.085938 250.296875 155.328125 C 249.253906 154.578125 248.046875 152.316406 246.671875 148.546875 C 245.992188 145.992188 245.25 143.394531 244.4375 140.75 C 243.625 138.101562 242.734375 135.394531 241.765625 132.625 C 240.566406 128.300781 242.207031 125.253906 246.6875 123.484375 C 251.1875 121.722656 255.554688 119.984375 259.796875 118.265625 C 264.035156 116.546875 268.25 114.691406 272.4375 112.703125 C 281.601562 108.617188 290.265625 103.023438 298.421875 95.921875 C 300.515625 94.003906 302.375 91.921875 304 89.671875 C 305.632812 87.421875 305.953125 84.789062 304.953125 81.78125 C 304.203125 78.71875 302.539062 76.59375 299.96875 75.40625 C 297.40625 74.21875 294.75 73.3125 292 72.6875 C 282.976562 70.90625 274.101562 70.5 265.375 71.46875 C 256.644531 72.445312 247.988281 74.273438 239.40625 76.953125 C 233.875 78.867188 228.457031 81.101562 223.15625 83.65625 C 217.863281 86.207031 212.539062 88.96875 207.1875 91.9375 C 197.695312 97.40625 188.191406 102.738281 178.671875 107.9375 C 169.148438 113.132812 159.632812 118.332031 150.125 123.53125 C 145.757812 126.070312 143.273438 127.984375 142.671875 129.265625 C 142.078125 130.554688 142.296875 133.632812 143.328125 138.5 C 145.679688 148.46875 148.046875 158.5 150.421875 168.59375 C 152.796875 178.6875 155.941406 188.597656 159.859375 198.328125 C 160.316406 199.566406 160.988281 201.3125 161.875 203.5625 C 162.664062 206.882812 161.289062 209.085938 157.75 210.171875 C 154.195312 211.265625 151.796875 210.316406 150.546875 207.328125 C 148.347656 201.835938 146.113281 196.488281 143.84375 191.28125 C 141.582031 186.082031 139.875 180.65625 138.71875 175 Z M 8.203125 92.90625 C 12.003906 100.257812 17.289062 105.257812 24.0625 107.90625 C 30.84375 110.5625 39.789062 111.019531 50.90625 109.28125 C 60.351562 106.988281 70.164062 103.65625 80.34375 99.28125 C 90.53125 94.914062 100.679688 90.347656 110.796875 85.578125 C 114.765625 83.890625 115.890625 80.929688 114.171875 76.703125 C 112.160156 70.660156 109.765625 64.675781 106.984375 58.75 C 104.203125 52.832031 100.570312 47.441406 96.09375 42.578125 C 88.945312 34.148438 79.789062 28.957031 68.625 27 C 47.4375 23.695312 29.28125 29.585938 14.15625 44.671875 C 7.507812 51.285156 3.722656 58.835938 2.796875 67.328125 C 1.867188 75.816406 3.671875 84.34375 8.203125 92.90625 Z M 8.203125 92.90625 "/></g></g></g></g></g></g><g clip-path="url(#41cdbfe5b2)"><g clip-path="url(#064a851dff)"><g transform="matrix(1, 0, 0, 1, 332, 207)"><g clip-path="url(#3ccddc0f7e)"><g clip-path="url(#c50880d811)"><g clip-path="url(#fa34679fb8)"><rect x="-1094" width="2592" fill="#ff5757" y="-1123.999976" height="2591.999885" fill-opacity="1"/></g></g></g></g></g></g><g clip-path="url(#d08b3ceb8d)"><g clip-path="url(#a99b4ebd33)"><g transform="matrix(1, 0, 0, 1, 331, 204)"><g clip-path="url(#bd6d2c214e)"><g clip-path="url(#5d97473266)"><g clip-path="url(#c4e88435b8)"><rect x="-1093" width="2592" fill="#000000" y="-1120.999976" height="2591.999885" fill-opacity="1"/></g></g></g></g></g></g></g></g><g transform="matrix(1, 0, 0, 1, 626, 614)"><g clip-path="url(#4e97015a68)"><g fill="#000000" fill-opacity="1"><g transform="translate(0.819393, 178.053561)"><g><path d="M 87.109375 -138.09375 C 87.109375 -138.09375 87.109375 -136.503906 87.109375 -133.328125 C 87.109375 -130.148438 87.109375 -125.972656 87.109375 -120.796875 C 87.109375 -115.628906 87.109375 -110.050781 87.109375 -104.0625 C 87.109375 -98.082031 87.109375 -92.207031 87.109375 -86.4375 C 87.109375 -80.675781 87.109375 -75.65625 87.109375 -71.375 C 87.109375 -67.082031 87.070312 -62.019531 87 -56.1875 C 86.925781 -50.351562 86.890625 -44.296875 86.890625 -38.015625 C 86.890625 -31.734375 86.851562 -25.894531 86.78125 -20.5 C 86.707031 -15.101562 86.632812 -10.628906 86.5625 -7.078125 C 86.488281 -3.535156 86.453125 -1.691406 86.453125 -1.546875 C 86.453125 -0.515625 86.082031 0 85.34375 0 L 54.3125 0 C 53.570312 0 53.203125 -0.515625 53.203125 -1.546875 C 53.203125 -1.847656 53.160156 -3.253906 53.078125 -5.765625 C 53.003906 -8.273438 52.929688 -11.046875 52.859375 -14.078125 C 52.785156 -17.109375 52.675781 -19.65625 52.53125 -21.71875 C 52.53125 -23.9375 52.421875 -26.742188 52.203125 -30.140625 C 51.984375 -33.546875 51.425781 -36.578125 50.53125 -39.234375 C 49.644531 -41.890625 48.171875 -43.21875 46.109375 -43.21875 C 43.890625 -43.21875 42.445312 -41.847656 41.78125 -39.109375 C 41.113281 -36.378906 40.742188 -33.316406 40.671875 -29.921875 C 40.597656 -26.523438 40.5625 -23.941406 40.5625 -22.171875 C 40.414062 -18.765625 40.453125 -15.363281 40.671875 -11.96875 C 40.890625 -8.570312 41 -5.097656 41 -1.546875 C 41 -0.515625 40.554688 0 39.671875 0 L 7.53125 0 C 6.644531 0 6.273438 -0.585938 6.421875 -1.765625 C 6.722656 -5.609375 6.945312 -11.113281 7.09375 -18.28125 C 7.238281 -25.445312 7.273438 -33.535156 7.203125 -42.546875 C 7.128906 -51.566406 7.054688 -60.84375 6.984375 -70.375 C 6.910156 -79.90625 6.796875 -89.140625 6.640625 -98.078125 C 6.492188 -107.023438 6.347656 -114.96875 6.203125 -121.90625 C 6.054688 -128.851562 5.910156 -134.175781 5.765625 -137.875 C 5.765625 -138.90625 6.132812 -139.421875 6.875 -139.421875 L 39.234375 -139.421875 C 40.117188 -139.421875 40.5625 -138.832031 40.5625 -137.65625 C 40.414062 -135.289062 40.304688 -132.109375 40.234375 -128.109375 C 40.160156 -124.117188 40.160156 -120.238281 40.234375 -116.46875 C 40.304688 -112.707031 40.34375 -110.085938 40.34375 -108.609375 C 40.34375 -102.703125 40.929688 -98.820312 42.109375 -96.96875 C 43.296875 -95.125 45.367188 -94.5 48.328125 -95.09375 C 51.273438 -95.832031 52.820312 -97.710938 52.96875 -100.734375 C 53.125 -103.765625 53.203125 -107.273438 53.203125 -111.265625 C 53.203125 -113.046875 53.125 -115.78125 52.96875 -119.46875 C 52.820312 -123.164062 52.710938 -126.785156 52.640625 -130.328125 C 52.566406 -133.878906 52.457031 -136.320312 52.3125 -137.65625 C 52.3125 -138.832031 52.679688 -139.421875 53.421875 -139.421875 L 85.78125 -139.421875 C 86.519531 -139.421875 86.960938 -138.976562 87.109375 -138.09375 Z M 87.109375 -138.09375 "/></g></g></g><g fill="#000000" fill-opacity="1"><g transform="translate(88.146146, 178.053561)"><g><path d="M 80.6875 -36.578125 C 81.863281 -32.734375 82.96875 -28.410156 84 -23.609375 C 85.039062 -18.804688 85.929688 -14.410156 86.671875 -10.421875 C 87.410156 -6.429688 87.925781 -3.769531 88.21875 -2.4375 C 88.363281 -0.8125 87.847656 0 86.671875 0 L 54.3125 0 C 53.71875 0 53.269531 -0.441406 52.96875 -1.328125 C 52.675781 -2.359375 52.234375 -4.390625 51.640625 -7.421875 C 51.054688 -10.453125 50.394531 -13.773438 49.65625 -17.390625 C 48.914062 -21.015625 48.101562 -24.265625 47.21875 -27.140625 C 46.332031 -30.023438 45.519531 -31.914062 44.78125 -32.8125 C 44.1875 -33.539062 43.296875 -33.722656 42.109375 -33.359375 C 40.929688 -32.992188 40.34375 -32.21875 40.34375 -31.03125 C 40.039062 -26.445312 39.851562 -21.679688 39.78125 -16.734375 C 39.707031 -11.785156 39.742188 -6.875 39.890625 -2 C 39.890625 -0.664062 39.445312 0 38.5625 0 L 7.53125 0 C 6.644531 0 6.203125 -0.664062 6.203125 -2 L 6.203125 -20.609375 C 6.203125 -21.347656 6.238281 -23.304688 6.3125 -26.484375 C 6.382812 -29.660156 6.421875 -33.390625 6.421875 -37.671875 C 6.421875 -41.960938 6.421875 -46.25 6.421875 -50.53125 C 6.421875 -54.820312 6.382812 -58.519531 6.3125 -61.625 C 6.238281 -64.726562 6.203125 -66.570312 6.203125 -67.15625 L 6.203125 -94.875 C 6.347656 -101.96875 6.492188 -109.171875 6.640625 -116.484375 C 6.796875 -123.796875 6.800781 -131 6.65625 -138.09375 C 6.65625 -138.976562 6.875 -139.421875 7.3125 -139.421875 L 58.953125 -139.421875 C 61.472656 -139.421875 64.0625 -138.789062 66.71875 -137.53125 C 69.375 -136.28125 71.8125 -134.617188 74.03125 -132.546875 C 76.6875 -130.328125 78.863281 -127.851562 80.5625 -125.125 C 82.269531 -122.394531 83.414062 -120.289062 84 -118.8125 C 86.070312 -114.375 87.179688 -110.050781 87.328125 -105.84375 C 87.472656 -101.632812 87.546875 -96.570312 87.546875 -90.65625 C 87.546875 -88 87.4375 -84.929688 87.21875 -81.453125 C 87 -77.984375 86.664062 -74.695312 86.21875 -71.59375 C 85.78125 -68.488281 85.191406 -66.050781 84.453125 -64.28125 C 83.710938 -62.507812 82.675781 -60.515625 81.34375 -58.296875 C 80.019531 -56.078125 78.800781 -54.15625 77.6875 -52.53125 C 76.582031 -50.90625 76.03125 -50.019531 76.03125 -49.875 C 75.882812 -49.875 75.8125 -49.875 75.8125 -49.875 C 75.8125 -49.875 75.8125 -49.800781 75.8125 -49.65625 C 74.625 -48.769531 74.804688 -47.472656 76.359375 -45.765625 C 77.910156 -44.066406 79.351562 -41.003906 80.6875 -36.578125 Z M 51.640625 -80.46875 C 51.941406 -83.5625 52.015625 -86.398438 51.859375 -88.984375 C 51.710938 -91.578125 51.492188 -94.054688 51.203125 -96.421875 C 50.753906 -100.410156 49.898438 -102.957031 48.640625 -104.0625 C 47.390625 -105.175781 46.101562 -105.734375 44.78125 -105.734375 C 43.882812 -105.734375 43.066406 -105.472656 42.328125 -104.953125 C 41.597656 -104.429688 41.234375 -103.878906 41.234375 -103.296875 C 41.234375 -102.410156 41.234375 -101.300781 41.234375 -99.96875 C 41.234375 -98.632812 41.234375 -97.304688 41.234375 -95.984375 C 41.234375 -93.617188 41.191406 -90.476562 41.109375 -86.5625 C 41.035156 -82.644531 41.078125 -79.429688 41.234375 -76.921875 C 41.234375 -75.878906 41.378906 -74.691406 41.671875 -73.359375 C 41.960938 -72.035156 43 -71.300781 44.78125 -71.15625 C 46.25 -71.15625 47.6875 -71.851562 49.09375 -73.25 C 50.5 -74.65625 51.347656 -77.0625 51.640625 -80.46875 Z M 51.640625 -80.46875 "/></g></g></g><g fill="#000000" fill-opacity="1"><g transform="translate(175.251256, 178.053561)"><g><path d="M 6.875 -139.421875 L 47.65625 -139.421875 C 49.28125 -139.421875 50.019531 -138.535156 49.875 -136.765625 C 49.570312 -132.472656 49.382812 -126.554688 49.3125 -119.015625 C 49.238281 -111.484375 49.203125 -103.320312 49.203125 -94.53125 C 49.203125 -85.738281 49.238281 -77.164062 49.3125 -68.8125 C 49.382812 -60.46875 49.492188 -53.117188 49.640625 -46.765625 C 49.796875 -40.410156 49.875 -35.976562 49.875 -33.46875 C 50.019531 -28.300781 50.238281 -23.164062 50.53125 -18.0625 C 50.832031 -12.96875 51.203125 -7.832031 51.640625 -2.65625 C 51.796875 -0.882812 50.984375 0 49.203125 0 L 7.09375 0 C 6.5 0 6.273438 -0.367188 6.421875 -1.109375 C 6.722656 -3.023438 6.945312 -6.566406 7.09375 -11.734375 C 7.238281 -16.910156 7.3125 -22.710938 7.3125 -29.140625 C 7.3125 -35.578125 7.273438 -41.640625 7.203125 -47.328125 C 7.128906 -53.015625 7.019531 -57.335938 6.875 -60.296875 C 6.875 -63.835938 6.835938 -68.488281 6.765625 -74.25 C 6.691406 -80.019531 6.613281 -86.226562 6.53125 -92.875 C 6.457031 -99.519531 6.382812 -105.984375 6.3125 -112.265625 C 6.238281 -118.546875 6.164062 -124.050781 6.09375 -128.78125 C 6.019531 -133.507812 5.984375 -136.757812 5.984375 -138.53125 C 6.128906 -138.675781 6.425781 -138.972656 6.875 -139.421875 Z M 6.875 -139.421875 "/></g></g></g><g fill="#000000" fill-opacity="1"><g transform="translate(226.006946, 178.053561)"><g><path d="M 88.21875 -137.421875 C 88.21875 -137.273438 88.144531 -137.203125 88 -137.203125 C 88 -136.910156 88 -136.613281 88 -136.3125 C 88 -132.320312 87.921875 -128.367188 87.765625 -124.453125 C 87.617188 -120.546875 87.546875 -116.671875 87.546875 -112.828125 C 87.546875 -111.492188 87.582031 -109.863281 87.65625 -107.9375 C 87.738281 -106.019531 87.851562 -104.320312 88 -102.84375 C 88.144531 -101.363281 88.21875 -100.625 88.21875 -100.625 L 88.21875 -93.3125 C 88.21875 -92.425781 87.773438 -91.984375 86.890625 -91.984375 C 81.867188 -91.984375 77.582031 -92.128906 74.03125 -92.421875 C 70.488281 -92.722656 67.273438 -92.945312 64.390625 -93.09375 C 61.503906 -93.238281 58.4375 -93.09375 55.1875 -92.65625 C 51.9375 -92.0625 50.085938 -90.582031 49.640625 -88.21875 C 49.203125 -85.851562 48.984375 -84.226562 48.984375 -83.34375 C 49.273438 -80.832031 50.160156 -78.910156 51.640625 -77.578125 C 53.117188 -76.242188 55.484375 -75.359375 58.734375 -74.921875 C 62.140625 -74.472656 66.613281 -74.394531 72.15625 -74.6875 C 77.695312 -74.988281 82.609375 -75.285156 86.890625 -75.578125 C 87.773438 -75.734375 88.21875 -75.363281 88.21875 -74.46875 C 88.21875 -74.46875 88.179688 -73.101562 88.109375 -70.375 C 88.035156 -67.644531 88 -64.46875 88 -60.84375 C 88 -57.226562 88 -53.976562 88 -51.09375 C 88 -48.207031 88 -46.617188 88 -46.328125 C 88 -46.328125 88.035156 -45.585938 88.109375 -44.109375 C 88.179688 -42.628906 88.21875 -41.890625 88.21875 -41.890625 C 88.21875 -41.148438 87.773438 -40.78125 86.890625 -40.78125 C 84.234375 -40.632812 80.28125 -40.523438 75.03125 -40.453125 C 69.78125 -40.378906 64.644531 -39.601562 59.625 -38.125 C 56.96875 -37.382812 54.9375 -36.90625 53.53125 -36.6875 C 52.125 -36.46875 51.015625 -35.800781 50.203125 -34.6875 C 49.390625 -33.582031 48.46875 -31.40625 47.4375 -28.15625 C 46.25 -24.164062 46.0625 -19.84375 46.875 -15.1875 C 47.6875 -10.53125 48.242188 -5.910156 48.546875 -1.328125 C 48.546875 -0.441406 48.175781 0 47.4375 0 L 7.53125 0 C 6.644531 0 6.203125 -0.441406 6.203125 -1.328125 C 6.203125 -1.328125 6.238281 -2.617188 6.3125 -5.203125 C 6.382812 -7.796875 6.421875 -10.9375 6.421875 -14.625 C 6.421875 -18.320312 6.421875 -21.867188 6.421875 -25.265625 C 6.421875 -28.660156 6.347656 -31.097656 6.203125 -32.578125 C 6.203125 -32.578125 6.203125 -33.648438 6.203125 -35.796875 C 6.203125 -37.941406 6.203125 -40.414062 6.203125 -43.21875 C 6.203125 -46.03125 6.203125 -48.46875 6.203125 -50.53125 C 6.203125 -52.601562 6.203125 -53.640625 6.203125 -53.640625 C 6.203125 -54.523438 6.238281 -57.179688 6.3125 -61.609375 C 6.382812 -66.046875 6.421875 -71.332031 6.421875 -77.46875 C 6.421875 -83.601562 6.421875 -89.8125 6.421875 -96.09375 C 6.421875 -102.375 6.421875 -107.835938 6.421875 -112.484375 C 6.421875 -117.140625 6.347656 -120.207031 6.203125 -121.6875 L 6.203125 -138.09375 C 6.203125 -138.976562 6.644531 -139.421875 7.53125 -139.421875 L 86.890625 -139.421875 C 87.773438 -139.421875 88.21875 -138.976562 88.21875 -138.09375 Z M 88.21875 -137.421875 "/></g></g></g><g fill="#000000" fill-opacity="1"><g transform="translate(314.220274, 178.053561)"><g><path d="M 86 -138.984375 C 86 -133.066406 86.144531 -127.113281 86.4375 -121.125 C 86.738281 -115.144531 86.742188 -109.203125 86.453125 -103.296875 C 86.453125 -100.484375 86.375 -97.632812 86.21875 -94.75 C 86.070312 -91.875 86 -88.957031 86 -86 C 86 -84.664062 85.484375 -83.925781 84.453125 -83.78125 C 80.898438 -83.34375 77.609375 -83.269531 74.578125 -83.5625 C 71.554688 -83.851562 69.378906 -83.484375 68.046875 -82.453125 C 67.753906 -82.160156 67.273438 -81.679688 66.609375 -81.015625 C 65.941406 -80.347656 65.535156 -79.347656 65.390625 -78.015625 C 65.085938 -76.835938 64.898438 -74.253906 64.828125 -70.265625 C 64.753906 -66.273438 64.679688 -61.507812 64.609375 -55.96875 C 64.535156 -50.425781 64.5 -44.660156 64.5 -38.671875 C 64.5 -32.691406 64.5 -27.039062 64.5 -21.71875 C 64.5 -16.40625 64.535156 -11.972656 64.609375 -8.421875 C 64.679688 -4.878906 64.71875 -2.882812 64.71875 -2.4375 C 64.71875 -0.8125 64.054688 0 62.734375 0 L 28.59375 0 C 27.414062 0 26.75 -0.738281 26.59375 -2.21875 C 26.59375 -4.132812 26.628906 -7.382812 26.703125 -11.96875 C 26.785156 -16.550781 26.898438 -21.722656 27.046875 -27.484375 C 27.191406 -33.242188 27.335938 -38.96875 27.484375 -44.65625 C 27.628906 -50.351562 27.738281 -55.269531 27.8125 -59.40625 C 27.882812 -63.539062 27.847656 -66.203125 27.703125 -67.390625 C 27.410156 -69.597656 27.300781 -71.8125 27.375 -74.03125 C 27.445312 -76.25 26.671875 -78.171875 25.046875 -79.796875 C 23.710938 -80.972656 22.269531 -81.820312 20.71875 -82.34375 C 19.164062 -82.863281 17.578125 -83.195312 15.953125 -83.34375 C 14.035156 -83.488281 12.300781 -83.5625 10.75 -83.5625 C 9.195312 -83.5625 8.421875 -83.5625 8.421875 -83.5625 C 7.085938 -83.5625 6.421875 -84.300781 6.421875 -85.78125 C 6.421875 -85.78125 6.421875 -86.773438 6.421875 -88.765625 C 6.421875 -90.765625 6.382812 -92.984375 6.3125 -95.421875 C 6.238281 -97.859375 6.128906 -99.742188 5.984375 -101.078125 C 5.835938 -103.140625 5.6875 -106.128906 5.53125 -110.046875 C 5.382812 -113.960938 5.3125 -118.023438 5.3125 -122.234375 C 5.3125 -126.453125 5.3125 -130.078125 5.3125 -133.109375 C 5.3125 -136.140625 5.3125 -137.800781 5.3125 -138.09375 C 5.3125 -138.976562 5.976562 -139.421875 7.3125 -139.421875 L 85.5625 -139.421875 C 85.5625 -139.421875 85.632812 -139.382812 85.78125 -139.3125 C 85.925781 -139.238281 86 -139.128906 86 -138.984375 Z M 86 -138.984375 "/></g></g></g><g fill="#000000" fill-opacity="1"><g transform="translate(399.995522, 178.053561)"><g><path d="M 6.875 -139.421875 L 47.65625 -139.421875 C 49.28125 -139.421875 50.019531 -138.535156 49.875 -136.765625 C 49.570312 -132.472656 49.382812 -126.554688 49.3125 -119.015625 C 49.238281 -111.484375 49.203125 -103.320312 49.203125 -94.53125 C 49.203125 -85.738281 49.238281 -77.164062 49.3125 -68.8125 C 49.382812 -60.46875 49.492188 -53.117188 49.640625 -46.765625 C 49.796875 -40.410156 49.875 -35.976562 49.875 -33.46875 C 50.019531 -28.300781 50.238281 -23.164062 50.53125 -18.0625 C 50.832031 -12.96875 51.203125 -7.832031 51.640625 -2.65625 C 51.796875 -0.882812 50.984375 0 49.203125 0 L 7.09375 0 C 6.5 0 6.273438 -0.367188 6.421875 -1.109375 C 6.722656 -3.023438 6.945312 -6.566406 7.09375 -11.734375 C 7.238281 -16.910156 7.3125 -22.710938 7.3125 -29.140625 C 7.3125 -35.578125 7.273438 -41.640625 7.203125 -47.328125 C 7.128906 -53.015625 7.019531 -57.335938 6.875 -60.296875 C 6.875 -63.835938 6.835938 -68.488281 6.765625 -74.25 C 6.691406 -80.019531 6.613281 -86.226562 6.53125 -92.875 C 6.457031 -99.519531 6.382812 -105.984375 6.3125 -112.265625 C 6.238281 -118.546875 6.164062 -124.050781 6.09375 -128.78125 C 6.019531 -133.507812 5.984375 -136.757812 5.984375 -138.53125 C 6.128906 -138.675781 6.425781 -138.972656 6.875 -139.421875 Z M 6.875 -139.421875 "/></g></g></g><g fill="#000000" fill-opacity="1"><g transform="translate(450.751212, 178.053561)"><g><path d="M 88.21875 -137.421875 C 88.21875 -137.273438 88.144531 -137.203125 88 -137.203125 C 88 -136.910156 88 -136.613281 88 -136.3125 C 88 -132.320312 87.921875 -128.367188 87.765625 -124.453125 C 87.617188 -120.546875 87.546875 -116.671875 87.546875 -112.828125 C 87.546875 -111.492188 87.582031 -109.863281 87.65625 -107.9375 C 87.738281 -106.019531 87.851562 -104.320312 88 -102.84375 C 88.144531 -101.363281 88.21875 -100.625 88.21875 -100.625 L 88.21875 -93.3125 C 88.21875 -92.425781 87.773438 -91.984375 86.890625 -91.984375 C 81.867188 -91.984375 77.582031 -92.128906 74.03125 -92.421875 C 70.488281 -92.722656 67.273438 -92.945312 64.390625 -93.09375 C 61.503906 -93.238281 58.4375 -93.09375 55.1875 -92.65625 C 51.9375 -92.0625 50.085938 -90.582031 49.640625 -88.21875 C 49.203125 -85.851562 48.984375 -84.226562 48.984375 -83.34375 C 49.273438 -80.832031 50.160156 -78.910156 51.640625 -77.578125 C 53.117188 -76.242188 55.484375 -75.359375 58.734375 -74.921875 C 62.140625 -74.472656 66.613281 -74.394531 72.15625 -74.6875 C 77.695312 -74.988281 82.609375 -75.285156 86.890625 -75.578125 C 87.773438 -75.734375 88.21875 -75.363281 88.21875 -74.46875 C 88.21875 -74.46875 88.179688 -73.101562 88.109375 -70.375 C 88.035156 -67.644531 88 -64.46875 88 -60.84375 C 88 -57.226562 88 -53.976562 88 -51.09375 C 88 -48.207031 88 -46.617188 88 -46.328125 C 88 -46.328125 88.035156 -45.585938 88.109375 -44.109375 C 88.179688 -42.628906 88.21875 -41.890625 88.21875 -41.890625 C 88.21875 -41.148438 87.773438 -40.78125 86.890625 -40.78125 C 84.234375 -40.632812 80.28125 -40.523438 75.03125 -40.453125 C 69.78125 -40.378906 64.644531 -39.601562 59.625 -38.125 C 56.96875 -37.382812 54.9375 -36.90625 53.53125 -36.6875 C 52.125 -36.46875 51.015625 -35.800781 50.203125 -34.6875 C 49.390625 -33.582031 48.46875 -31.40625 47.4375 -28.15625 C 46.25 -24.164062 46.0625 -19.84375 46.875 -15.1875 C 47.6875 -10.53125 48.242188 -5.910156 48.546875 -1.328125 C 48.546875 -0.441406 48.175781 0 47.4375 0 L 7.53125 0 C 6.644531 0 6.203125 -0.441406 6.203125 -1.328125 C 6.203125 -1.328125 6.238281 -2.617188 6.3125 -5.203125 C 6.382812 -7.796875 6.421875 -10.9375 6.421875 -14.625 C 6.421875 -18.320312 6.421875 -21.867188 6.421875 -25.265625 C 6.421875 -28.660156 6.347656 -31.097656 6.203125 -32.578125 C 6.203125 -32.578125 6.203125 -33.648438 6.203125 -35.796875 C 6.203125 -37.941406 6.203125 -40.414062 6.203125 -43.21875 C 6.203125 -46.03125 6.203125 -48.46875 6.203125 -50.53125 C 6.203125 -52.601562 6.203125 -53.640625 6.203125 -53.640625 C 6.203125 -54.523438 6.238281 -57.179688 6.3125 -61.609375 C 6.382812 -66.046875 6.421875 -71.332031 6.421875 -77.46875 C 6.421875 -83.601562 6.421875 -89.8125 6.421875 -96.09375 C 6.421875 -102.375 6.421875 -107.835938 6.421875 -112.484375 C 6.421875 -117.140625 6.347656 -120.207031 6.203125 -121.6875 L 6.203125 -138.09375 C 6.203125 -138.976562 6.644531 -139.421875 7.53125 -139.421875 L 86.890625 -139.421875 C 87.773438 -139.421875 88.21875 -138.976562 88.21875 -138.09375 Z M 88.21875 -137.421875 "/></g></g></g><g fill="#000000" fill-opacity="1"><g transform="translate(538.964563, 178.053561)"><g><path d="M 53.859375 -139.421875 L 90.4375 -139.421875 C 91.03125 -139.421875 91.175781 -138.976562 90.875 -138.09375 C 90.726562 -137.5 90.285156 -135.503906 89.546875 -132.109375 C 88.804688 -128.710938 87.921875 -124.5 86.890625 -119.46875 C 85.859375 -114.445312 84.675781 -109.3125 83.34375 -104.0625 C 82.007812 -98.820312 80.753906 -94.132812 79.578125 -90 C 76.765625 -80.382812 74.285156 -71.921875 72.140625 -64.609375 C 70.003906 -57.296875 68.863281 -52.972656 68.71875 -51.640625 C 68.414062 -49.273438 68.226562 -47.242188 68.15625 -45.546875 C 68.082031 -43.847656 68.046875 -41.816406 68.046875 -39.453125 C 68.046875 -36.648438 67.972656 -33.804688 67.828125 -30.921875 C 67.679688 -28.035156 67.535156 -25.191406 67.390625 -22.390625 C 67.390625 -18.835938 67.347656 -15.25 67.265625 -11.625 C 67.191406 -8.007812 67.234375 -4.429688 67.390625 -0.890625 C 67.390625 -0.296875 67.238281 0 66.9375 0 L 25.265625 0 C 24.828125 0 24.609375 -0.296875 24.609375 -0.890625 C 24.609375 -1.179688 24.644531 -2.726562 24.71875 -5.53125 C 24.789062 -8.34375 24.863281 -11.742188 24.9375 -15.734375 C 25.007812 -19.722656 25.082031 -23.785156 25.15625 -27.921875 C 25.226562 -32.066406 25.265625 -35.726562 25.265625 -38.90625 C 25.265625 -42.082031 25.265625 -44.1875 25.265625 -45.21875 C 25.265625 -47.875 25.15625 -49.609375 24.9375 -50.421875 C 24.71875 -51.234375 24.3125 -52.820312 23.71875 -55.1875 C 23.425781 -56.226562 22.757812 -59.148438 21.71875 -63.953125 C 20.6875 -68.753906 19.132812 -75.144531 17.0625 -83.125 C 15.738281 -88.59375 14.375 -94.28125 12.96875 -100.1875 C 11.5625 -106.101562 10.265625 -111.753906 9.078125 -117.140625 C 7.898438 -122.535156 6.90625 -127.15625 6.09375 -131 C 5.28125 -134.84375 4.726562 -137.28125 4.4375 -138.3125 C 4.289062 -139.050781 4.4375 -139.421875 4.875 -139.421875 L 41.234375 -139.421875 C 41.523438 -139.421875 41.671875 -139.125 41.671875 -138.53125 C 41.960938 -132.769531 42.328125 -127.003906 42.765625 -121.234375 C 43.210938 -115.472656 43.734375 -109.710938 44.328125 -103.953125 C 44.628906 -102.035156 45.441406 -101.078125 46.765625 -101.078125 C 47.953125 -101.078125 48.765625 -102.035156 49.203125 -103.953125 C 49.648438 -106.023438 50.09375 -108.832031 50.53125 -112.375 C 50.976562 -115.925781 51.382812 -119.582031 51.75 -123.34375 C 52.125 -127.113281 52.457031 -130.441406 52.75 -133.328125 C 53.050781 -136.210938 53.273438 -138.019531 53.421875 -138.75 C 53.566406 -139.195312 53.710938 -139.421875 53.859375 -139.421875 Z M 53.859375 -139.421875 "/></g></g></g></g></g></svg>